<?xml version="1.0" encoding="utf-8"?>
<!-- Generator: Adobe Illustrator 19.0.0, SVG Export Plug-In . SVG Version: 6.00 Build 0)  -->
<svg version="1.1"
	 id="svg3476" xmlns:inkscape="http://www.inkscape.org/namespaces/inkscape" xmlns:sodipodi="http://sodipodi.sourceforge.net/DTD/sodipodi-0.dtd" xmlns:dc="http://purl.org/dc/elements/1.1/" xmlns:cc="http://creativecommons.org/ns#" xmlns:svg="http://www.w3.org/2000/svg" xmlns:rdf="http://www.w3.org/1999/02/22-rdf-syntax-ns#" sodipodi:docname="CSS3.svg" inkscape:version="0.91 r13725"
	 xmlns="http://www.w3.org/2000/svg" xmlns:xlink="http://www.w3.org/1999/xlink" x="0px" y="0px"
	 viewBox="-282.6 507.5 283.5 283.5" style="enable-background:new -282.6 507.5 283.5 283.5;" xml:space="preserve">
<style type="text/css">
	.st0{fill:#9D9D9C;}
	.st1{fill:#BEBEBE;}
	.st2{fill:#EBEBEB;}
	.st3{fill:#646363;}
	.st4{fill:#FFFFFF;}
	.st5{fill:#808080;}
</style>
<sodipodi:namedview  borderopacity="1.0" inkscape:cx="181.367" fit-margin-left="0" fit-margin-top="0" inkscape:cy="256" showgrid="false" id="base" bordercolor="#666666" inkscape:zoom="0.35" pagecolor="#ffffff" inkscape:window-maximized="1" inkscape:window-y="27" inkscape:window-x="0" inkscape:window-height="704" inkscape:window-width="1366" inkscape:current-layer="layer1" inkscape:document-units="px" inkscape:pageopacity="0.0" fit-margin-right="0" fit-margin-bottom="0" inkscape:pageshadow="2">
	</sodipodi:namedview>
<g>
	<polygon id="polygon2989" class="st0" points="-28,521.1 -48.6,751.6 -141,777.3 -233.3,751.7 -253.8,521.1 	"/>
	<polygon id="polygon2991" class="st1" points="-66.2,736.9 -48.6,540 -140.9,540 -140.9,757.7 	"/>
	<polygon id="polygon2993" class="st2" points="-206.7,636.5 -204.2,664.8 -140.9,664.8 -140.9,636.5 	"/>
	<polygon id="polygon2995" class="st2" points="-140.9,579.3 -141,579.3 -211.8,579.3 -209.2,607.5 -140.9,607.5 	"/>
	<polygon id="polygon2997" class="st2" points="-140.9,739.3 -140.9,709.9 -141,709.9 -172.5,701.4 -174.5,678.9 -189.8,678.9 
		-202.9,678.9 -198.9,723.3 -141,739.4 	"/>
	<path id="path2999" inkscape:connector-curvature="0" class="st3" d="M-200.7,529.4h34.2v14.3h-19.9V558h19.9v14.3h-34.2V529.4z"/>
	<path id="path3001" inkscape:connector-curvature="0" class="st3" d="M-159.6,529.4h34.2v12.5h-19.9v2.5h19.9v28.6h-34.2v-13.1
		h19.9v-2.5h-19.9V529.4z"/>
	<path id="path3003" inkscape:connector-curvature="0" class="st3" d="M-118.5,529.4h34.2v12.5h-19.9v2.5h19.9v28.6h-34.2v-13.1
		h19.9v-2.5h-19.9V529.4z"/>
	<polygon id="polygon3005" class="st4" points="-106.2,664.8 -109.5,701.4 -141,709.9 -141,739.4 -83,723.3 -82.6,718.5 -76,644.1 
		-75.3,636.5 -70.2,579.3 -141,579.3 -141,607.5 -101.2,607.5 -103.7,636.5 -141,636.5 -141,664.8 	"/>
</g>
<title>HTML5 Logo</title>
<g>
	<path class="st5" d="M-15.5,509.5c7.9,0,14.3,6.4,14.3,14.3v250.9c0,7.9-6.4,14.3-14.3,14.3h-250.8c-7.9,0-14.3-6.4-14.3-14.3
		V523.8c0-7.9,6.4-14.3,14.3-14.3H-15.5 M-15.5,507.5h-250.8c-9,0-16.3,7.3-16.3,16.3v250.9c0,9,7.3,16.3,16.3,16.3h250.9
		c9,0,16.3-7.3,16.3-16.3V523.8C0.8,514.8-6.5,507.5-15.5,507.5L-15.5,507.5z"/>
</g>
</svg>
