<?xml version="1.0" encoding="utf-8"?>
<!-- Generator: Adobe Illustrator 19.0.0, SVG Export Plug-In . SVG Version: 6.00 Build 0)  -->
<svg version="1.1" id="Layer_1" xmlns="http://www.w3.org/2000/svg" xmlns:xlink="http://www.w3.org/1999/xlink" x="0px" y="0px"
	 viewBox="0 0 1200 1200" style="enable-background:new 0 0 1200 1200;" xml:space="preserve">
<style type="text/css">
	.st0{fill:url(#SVGID_1_);}
	.st1{filter:url(#Adobe_OpacityMaskFilter);}
	.st2{filter:url(#Adobe_OpacityMaskFilter_1_);}
	.st3{mask:url(#SVGID_2_);fill:url(#SVGID_3_);}
	.st4{fill:url(#SVGID_4_);}
	.st5{fill:url(#SVGID_5_);}
	.st6{fill:url(#SVGID_6_);}
	.st7{fill:url(#SVGID_7_);}
	.st8{fill:url(#SVGID_8_);}
	.st9{fill:url(#SVGID_9_);}
	.st10{fill:url(#SVGID_10_);}
	.st11{fill:url(#SVGID_11_);}
	.st12{fill:url(#SVGID_12_);}
	.st13{fill:url(#SVGID_13_);}
	.st14{fill:url(#SVGID_14_);}
	.st15{fill:url(#SVGID_15_);}
	.st16{fill:url(#SVGID_16_);}
	.st17{fill:url(#SVGID_17_);}
	.st18{fill:url(#SVGID_18_);}
	.st19{fill:url(#SVGID_19_);}
	.st20{fill:url(#SVGID_20_);}
	.st21{fill:url(#SVGID_21_);}
	.st22{fill:url(#SVGID_22_);}
	.st23{fill:url(#SVGID_23_);}
	.st24{fill:url(#SVGID_24_);}
	.st25{fill:url(#SVGID_25_);}
	.st26{fill:url(#SVGID_26_);}
	.st27{fill:url(#SVGID_27_);}
</style>
<g>
	<radialGradient id="SVGID_1_" cx="600" cy="717.7369" r="419.4163" gradientUnits="userSpaceOnUse">
		<stop  offset="0.2234" style="stop-color:#808184"/>
		<stop  offset="0.6489" style="stop-color:#58595B"/>
		<stop  offset="1" style="stop-color:#404041"/>
	</radialGradient>
	<path class="st0" d="M983.4,694.1l-65.5-8c-8.2-46-26-88.6-51.5-125.7l41.2-51.6c8.2-10.2,7.3-26.2-1.9-35.5l-33.5-33.8
		c-9.2-9.3-25.2-10.3-35.5-2.3l-52.1,40.7c-8.1-5.7-16.6-11-25.2-15.9V357.5h23.7c13.1,0,23.8-10.7,23.8-23.8v-23.8
		c0-13.1-10.7-23.8-23.8-23.8c-34.4,0-61,0-95.1,0c0,35.7,0,178.9,0,221.1c199.2,71.7,221.7,349.3,34.9,454.6
		C526.6,1072.5,298,887.6,357.8,674.5c23.5-83.6,80.6-141.9,153.9-167.9c0-32.5,0-187.7,0-220.5c-34,0-60.8,0-95.1,0
		c-13.1,0-23.8,10.7-23.8,23.8v23.8c0,13.1,10.7,23.8,23.8,23.8h23.7V462c-7.7,4.4-15.3,9-22.6,14.1l-51.6-41.2
		c-10.2-8.2-26.2-7.3-35.5,1.9l-33.8,33.5c-9.3,9.2-10.3,25.2-2.2,35.5l40.7,52c-25.8,36.9-44.1,79.3-52.7,125.2l-65.6,7.3
		c-13,1.5-23.7,13.4-23.8,26.4l-0.2,47.6c-0.1,13.1,10.5,25.1,23.5,26.7l65.5,8c8.1,46,26,88.6,51.5,125.7l-41.2,51.6
		c-8.2,10.2-7.3,26.2,1.9,35.5l33.5,33.8c9.2,9.3,25.2,10.3,35.5,2.2l52-40.7c36.8,25.8,79.3,44.1,125.2,52.7l7.3,65.6
		c1.4,13,13.3,23.7,26.4,23.7l47.6,0.2c13.1,0.1,25.1-10.5,26.7-23.5l8-65.5c46-8.1,88.6-26,125.7-51.5l51.6,41.2
		c10.2,8.2,26.2,7.3,35.5-1.9l33.8-33.5c9.3-9.2,10.3-25.2,2.2-35.5l-40.7-52c25.8-36.9,44.1-79.3,52.7-125.2l65.5-7.3
		c13-1.4,23.7-13.3,23.8-26.4l0.2-47.6C1006.9,707.6,996.3,695.6,983.4,694.1z"/>
	<defs>
		<filter id="Adobe_OpacityMaskFilter" filterUnits="userSpaceOnUse" x="204.7" y="297.7" width="790.5" height="840.1">
			<feFlood  style="flood-color:white;flood-opacity:1" result="back"/>
			<feBlend  in="SourceGraphic" in2="back" mode="normal"/>
		</filter>
	</defs>
	<mask maskUnits="userSpaceOnUse" x="204.7" y="297.7" width="790.5" height="840.1" id="SVGID_2_">
		<g class="st1">
			<defs>
				<filter id="Adobe_OpacityMaskFilter_1_" filterUnits="userSpaceOnUse" x="204.7" y="297.7" width="790.5" height="840.1">
					<feFlood  style="flood-color:white;flood-opacity:1" result="back"/>
					<feBlend  in="SourceGraphic" in2="back" mode="normal"/>
				</filter>
			</defs>
			<mask maskUnits="userSpaceOnUse" x="204.7" y="297.7" width="790.5" height="840.1" id="SVGID_2_">
				<g class="st2">
				</g>
			</mask>
			<radialGradient id="SVGID_3_" cx="599.9996" cy="717.7368" r="665.832" gradientUnits="userSpaceOnUse">
				<stop  offset="0" style="stop-color:#808080"/>
				<stop  offset="0.2234" style="stop-color:#4D4D4D"/>
				<stop  offset="0.5053" style="stop-color:#333333"/>
			</radialGradient>
			<path class="st3" d="M574.3,1137.5c-7.2,0-14.2-6.3-15-13.4L551,1050l-8.4-1.6c-43.6-8.2-84.2-25.3-120.7-50.8l-7-4.9l-58.8,46
				c-2.5,1.9-5.7,3-9.2,3c-4.2,0-8.2-1.6-10.9-4.3l-33.5-33.8c-5-5.1-5.5-14.5-1.1-20.1l46.6-58.3l-4.9-7.1
				c-25.2-36.7-41.9-77.5-49.6-121.2l-1.5-8.4l-74-9c-7.1-0.9-13.3-7.9-13.3-15.1l0.2-47.6c0-7.2,6.3-14.2,13.5-15l74.1-8.3l1.6-8.4
				c8.2-43.7,25.3-84.3,50.8-120.7l4.9-7l-46-58.8c-4.4-5.7-3.8-15,1.3-20.1l33.8-33.5c2.7-2.6,6.6-4.1,10.8-4.1
				c3.5,0,6.8,1.1,9.3,3.1l58.4,46.6l7.1-4.9c6.3-4.4,13.5-8.8,21.8-13.5l5.8-3.3V345.9h-35.3c-6.7,0-12.2-5.5-12.2-12.2v-23.8
				c0-6.7,5.5-12.2,12.2-12.2h83.5v200.8c-76.1,29.7-130.5,90.8-153.5,172.9c-22.4,79.7-6.8,163.1,42.9,228.6
				c50.5,66.7,129.2,106.5,210.4,106.5c44.7,0,88-11.7,128.8-34.6c90.8-51.2,141.8-147.9,133-252.3c-8.4-100.3-70.2-184-162-220.3
				V297.7h83.5c6.7,0,12.2,5.5,12.2,12.2v23.8c0,6.7-5.5,12.2-12.2,12.2H748v122.8l5.8,3.3c8.9,5.1,16.8,10.1,24.3,15.3l7,4.9
				l58.8-46c2.4-1.9,5.7-3,9.2-3c4.2,0,8.2,1.6,10.9,4.3l33.5,33.8c5,5.1,5.5,14.5,1.1,20.1L852,559.8l4.9,7.1
				c25.2,36.7,41.9,77.5,49.6,121.2l1.5,8.4l74,9c7.1,0.9,13.3,7.9,13.3,15.1l-0.2,47.6c0,7.2-6.3,14.2-13.4,15l-74.1,8.3l-1.6,8.4
				c-8.2,43.6-25.3,84.2-50.8,120.7l-4.9,7l46,58.8c4.4,5.7,3.8,15-1.3,20.1l-33.8,33.5c-2.7,2.6-6.6,4.1-10.8,4.1
				c-3.5,0-6.8-1.1-9.3-3.1l-58.3-46.6l-7.1,4.9c-36.7,25.2-77.5,41.9-121.2,49.6l-8.4,1.5l-9,74c-0.9,7.1-7.9,13.3-15,13.3
				L574.3,1137.5z"/>
		</g>
	</mask>
	<radialGradient id="SVGID_4_" cx="599.9996" cy="717.7368" r="665.832" gradientUnits="userSpaceOnUse">
		<stop  offset="0" style="stop-color:#FFFFFF"/>
		<stop  offset="0.2234" style="stop-color:#FFFFFF"/>
		<stop  offset="0.5053" style="stop-color:#58595B"/>
	</radialGradient>
	<path class="st4" d="M574.3,1137.5c-7.2,0-14.2-6.3-15-13.4L551,1050l-8.4-1.6c-43.6-8.2-84.2-25.3-120.7-50.8l-7-4.9l-58.8,46
		c-2.5,1.9-5.7,3-9.2,3c-4.2,0-8.2-1.6-10.9-4.3l-33.5-33.8c-5-5.1-5.5-14.5-1.1-20.1l46.6-58.3l-4.9-7.1
		c-25.2-36.7-41.9-77.5-49.6-121.2l-1.5-8.4l-74-9c-7.1-0.9-13.3-7.9-13.3-15.1l0.2-47.6c0-7.2,6.3-14.2,13.5-15l74.1-8.3l1.6-8.4
		c8.2-43.7,25.3-84.3,50.8-120.7l4.9-7l-46-58.8c-4.4-5.7-3.8-15,1.3-20.1l33.8-33.5c2.7-2.6,6.6-4.1,10.8-4.1
		c3.5,0,6.8,1.1,9.3,3.1l58.4,46.6l7.1-4.9c6.3-4.4,13.5-8.8,21.8-13.5l5.8-3.3V345.9h-35.3c-6.7,0-12.2-5.5-12.2-12.2v-23.8
		c0-6.7,5.5-12.2,12.2-12.2h83.5v200.8c-76.1,29.7-130.5,90.8-153.5,172.9c-22.4,79.7-6.8,163.1,42.9,228.6
		c50.5,66.7,129.2,106.5,210.4,106.5c44.7,0,88-11.7,128.8-34.6c90.8-51.2,141.8-147.9,133-252.3c-8.4-100.3-70.2-184-162-220.3
		V297.7h83.5c6.7,0,12.2,5.5,12.2,12.2v23.8c0,6.7-5.5,12.2-12.2,12.2H748v122.8l5.8,3.3c8.9,5.1,16.8,10.1,24.3,15.3l7,4.9l58.8-46
		c2.4-1.9,5.7-3,9.2-3c4.2,0,8.2,1.6,10.9,4.3l33.5,33.8c5,5.1,5.5,14.5,1.1,20.1L852,559.8l4.9,7.1c25.2,36.7,41.9,77.5,49.6,121.2
		l1.5,8.4l74,9c7.1,0.9,13.3,7.9,13.3,15.1l-0.2,47.6c0,7.2-6.3,14.2-13.4,15l-74.1,8.3l-1.6,8.4c-8.2,43.6-25.3,84.2-50.8,120.7
		l-4.9,7l46,58.8c4.4,5.7,3.8,15-1.3,20.1l-33.8,33.5c-2.7,2.6-6.6,4.1-10.8,4.1c-3.5,0-6.8-1.1-9.3-3.1l-58.3-46.6l-7.1,4.9
		c-36.7,25.2-77.5,41.9-121.2,49.6l-8.4,1.5l-9,74c-0.9,7.1-7.9,13.3-15,13.3L574.3,1137.5z"/>
	<radialGradient id="SVGID_5_" cx="621.6495" cy="564.7391" r="452.202" gradientUnits="userSpaceOnUse">
		<stop  offset="0.2234" style="stop-color:#F9A51A"/>
		<stop  offset="0.6489" style="stop-color:#F26F21"/>
		<stop  offset="1" style="stop-color:#ED3024"/>
	</radialGradient>
	<path class="st5" d="M654.3,636.2l12.6-1.8l-3.3-12.4l-11.7,4.8c-1.7-4-4-7.7-7-10.9l9.3-8.6l-9.8-8.2l-6.9,10.6
		c-4.5-2.9-9.6-4.8-15.1-5.5l1.6-12.6h-12.8l1.6,12.6c-4.4,0.6-8.5,1.9-12.3,3.9l-5.9-11.2l-10.5,7.3l8.5,9.4
		c-3.2,2.9-5.8,6.4-7.9,10.2l-11.3-5.8l-4.4,12l12.3,2.8c-1,4.4-1.1,8.7-0.6,12.9l-12.5,1.7l3.3,12.4l11.7-4.8c1.7,4,4,7.7,6.9,10.9
		l-9.3,8.6l9.8,8.2l6.9-10.6c4.5,2.9,9.6,4.8,15.1,5.5l-1.6,12.6h12.8l-1.6-12.6c4.4-0.6,8.5-1.9,12.3-3.9l5.9,11.2l10.5-7.3
		l-8.5-9.4c3.2-2.9,5.8-6.4,7.8-10.2l11.3,5.8l4.4-12l-12.3-2.8C654.7,644.7,654.9,640.4,654.3,636.2z M639.2,664.6
		c-23.2,21.3-59.5-0.3-52.9-30.4c6.8-30.8,48.9-33.9,60.8-5.4C652.2,641,649.2,655.3,639.2,664.6z"/>
	<radialGradient id="SVGID_6_" cx="621.6468" cy="564.743" r="452.1991" gradientUnits="userSpaceOnUse">
		<stop  offset="0.2234" style="stop-color:#F9A51A"/>
		<stop  offset="0.6489" style="stop-color:#F26F21"/>
		<stop  offset="1" style="stop-color:#ED3024"/>
	</radialGradient>
	<path class="st6" d="M725.1,189.3l12.5-1.7l-3.3-12.4l-11.7,4.8c-1.7-4-4-7.7-7-10.9l9.3-8.6l-9.8-8.2l-6.9,10.6
		c-4.5-2.9-9.6-4.8-15.1-5.5l1.6-12.6h-12.8l1.6,12.6c-4.4,0.6-8.5,1.9-12.3,3.9l-5.9-11.2l-10.5,7.3l8.5,9.4
		c-3.2,2.9-5.8,6.4-7.9,10.2l-11.3-5.8l-4.4,12l12.3,2.8c-1,4.4-1.1,8.7-0.6,12.9l-12.5,1.7l3.3,12.4l11.7-4.8c1.7,4,4,7.7,6.9,10.9
		l-9.3,8.6l9.8,8.2l6.9-10.6c4.5,2.9,9.6,4.8,15.1,5.5l-1.6,12.6h12.8l-1.6-12.6c4.4-0.6,8.5-1.9,12.3-3.9l5.9,11.2l10.5-7.3
		l-8.5-9.4c3.2-2.9,5.8-6.4,7.9-10.2l11.3,5.8l4.4-12l-12.3-2.8C725.5,197.8,725.6,193.6,725.1,189.3z M709.9,217.7
		c-23.2,21.3-59.5-0.3-52.9-30.4c6.8-30.8,48.9-33.9,60.8-5.4C722.9,194.1,720,208.5,709.9,217.7z"/>
	<radialGradient id="SVGID_7_" cx="621.6446" cy="564.738" r="452.1936" gradientUnits="userSpaceOnUse">
		<stop  offset="0.2234" style="stop-color:#F9A51A"/>
		<stop  offset="0.6489" style="stop-color:#F26F21"/>
		<stop  offset="1" style="stop-color:#ED3024"/>
	</radialGradient>
	<path class="st7" d="M561.4,572.8h-7.9c-1-4.2-2.6-8.1-4.9-11.7l5.6-5.6c1.3-1.3,1.3-3.4,0-4.6l-7-7c-1.3-1.3-3.4-1.3-4.6,0
		l-5.6,5.6c-3.5-2.2-7.5-3.9-11.7-4.8v-7.9c0-1.8-1.5-3.3-3.3-3.3h-9.9c-1.8,0-3.3,1.5-3.3,3.3v7.9c-4.2,1-8.1,2.6-11.7,4.8
		l-5.6-5.6c-1.3-1.3-3.4-1.3-4.7,0l-7,7c-1.3,1.3-1.3,3.4,0,4.6l5.6,5.6c-2.2,3.5-3.9,7.5-4.9,11.7h-7.9c-1.8,0-3.3,1.5-3.3,3.3v9.9
		c0,1.8,1.5,3.3,3.3,3.3h7.9c0.9,4.2,2.6,8.1,4.9,11.7l-5.6,5.6c-1.3,1.3-1.3,3.4,0,4.7l7,7c1.3,1.3,3.4,1.3,4.7,0l5.6-5.6
		c3.5,2.2,7.5,3.9,11.7,4.8v7.9c0,1.8,1.5,3.3,3.3,3.3h9.9c1.8,0,3.3-1.5,3.3-3.3v-7.9c4.2-0.9,8.1-2.6,11.7-4.8l5.6,5.6
		c1.3,1.3,3.4,1.3,4.6,0l7-7c1.3-1.3,1.3-3.4,0-4.7l-5.6-5.6c2.2-3.5,3.9-7.5,4.9-11.7h7.9c1.8,0,3.3-1.5,3.3-3.3V576
		C564.7,574.2,563.2,572.8,561.4,572.8z M495.2,591.2c-9.1-19.4,9.9-40.2,30.1-32.9c12.4,4.5,19,18.3,14.5,30.9
		C532.4,609.3,504.4,610.6,495.2,591.2z"/>
	<radialGradient id="SVGID_8_" cx="621.6481" cy="564.7444" r="452.2175" gradientUnits="userSpaceOnUse">
		<stop  offset="0.2234" style="stop-color:#F9A51A"/>
		<stop  offset="0.6489" style="stop-color:#F26F21"/>
		<stop  offset="1" style="stop-color:#ED3024"/>
	</radialGradient>
	<path class="st8" d="M670.1,411.6h-7.9c-0.9-4.2-2.6-8.1-4.8-11.7l5.6-5.6c1.3-1.3,1.3-3.4,0-4.6l-7-7c-1.3-1.3-3.4-1.3-4.6,0
		l-5.6,5.6c-3.5-2.2-7.5-3.9-11.7-4.9v-7.9c0-1.8-1.5-3.3-3.3-3.3h-9.9c-1.8,0-3.3,1.5-3.3,3.3v7.9c-4.2,1-8.1,2.6-11.7,4.9
		l-5.6-5.6c-1.3-1.3-3.4-1.3-4.7,0l-7,7c-1.3,1.3-1.3,3.4,0,4.6l5.6,5.6c-2.2,3.5-3.9,7.5-4.8,11.7h-7.9c-1.8,0-3.3,1.5-3.3,3.3v9.9
		c0,1.8,1.5,3.3,3.3,3.3h7.9c1,4.2,2.6,8.1,4.8,11.7l-5.6,5.6c-1.3,1.3-1.3,3.4,0,4.6l7,7c1.3,1.3,3.4,1.3,4.7,0l5.6-5.6
		c3.5,2.2,7.5,3.9,11.7,4.8v7.9c0,1.8,1.5,3.3,3.3,3.3h9.9c1.8,0,3.3-1.5,3.3-3.3v-7.9c4.2-1,8.1-2.6,11.7-4.8l5.6,5.6
		c1.3,1.3,3.4,1.3,4.6,0l7-7c1.3-1.3,1.3-3.4,0-4.6l-5.6-5.6c2.2-3.5,3.9-7.5,4.8-11.7h7.9c1.8,0,3.3-1.5,3.3-3.3v-9.9
		C673.3,413.1,671.9,411.6,670.1,411.6z M603.9,430c-9.1-19.4,9.9-40.2,30-32.9c12.4,4.5,19.1,18.3,14.5,30.9
		C641.1,448.2,613,449.4,603.9,430z"/>
	<radialGradient id="SVGID_9_" cx="621.6424" cy="564.7262" r="452.1813" gradientUnits="userSpaceOnUse">
		<stop  offset="0.2234" style="stop-color:#F9A51A"/>
		<stop  offset="0.6489" style="stop-color:#F26F21"/>
		<stop  offset="1" style="stop-color:#ED3024"/>
	</radialGradient>
	<path class="st9" d="M556.4,112.4h-7.9c-1-4.2-2.6-8.1-4.8-11.7l5.6-5.6c1.3-1.3,1.3-3.4,0-4.6l-7-7c-1.3-1.3-3.4-1.3-4.7,0
		l-5.6,5.6c-3.5-2.2-7.5-3.9-11.7-4.8v-8c0-1.8-1.5-3.3-3.3-3.3h-9.9c-1.8,0-3.3,1.5-3.3,3.3v8c-4.2,0.9-8.1,2.6-11.7,4.8l-5.6-5.6
		c-1.3-1.3-3.4-1.3-4.6,0l-7,7c-1.3,1.3-1.3,3.4,0,4.6l5.6,5.6c-2.2,3.5-3.9,7.5-4.8,11.7h-7.9c-1.8,0-3.3,1.5-3.3,3.3v9.9
		c0,1.8,1.5,3.3,3.3,3.3h7.9c1,4.2,2.6,8.1,4.8,11.7l-5.6,5.6c-1.3,1.3-1.3,3.4,0,4.7l7,7c1.3,1.3,3.4,1.3,4.6,0l5.6-5.6
		c3.5,2.2,7.5,3.9,11.7,4.8v7.9c0,1.8,1.5,3.3,3.3,3.3h9.9c1.8,0,3.3-1.5,3.3-3.3v-7.9c4.2-1,8.1-2.6,11.7-4.8l5.6,5.6
		c1.3,1.3,3.4,1.3,4.7,0l7-7c1.3-1.3,1.3-3.4,0-4.7l-5.6-5.6c2.2-3.5,3.9-7.5,4.8-11.7h7.9c1.8,0,3.3-1.5,3.3-3.3v-9.9
		C559.7,113.8,558.3,112.4,556.4,112.4z M490.3,130.8c-9.1-19.4,9.9-40.2,30-32.9c12.4,4.5,19.1,18.3,14.5,30.9
		C527.5,148.9,499.4,150.2,490.3,130.8z"/>
	<g>
		<radialGradient id="SVGID_10_" cx="621.5889" cy="564.7236" r="452.2882" gradientUnits="userSpaceOnUse">
			<stop  offset="0.2234" style="stop-color:#F9A51A"/>
			<stop  offset="0.6489" style="stop-color:#F26F21"/>
			<stop  offset="1" style="stop-color:#ED3024"/>
		</radialGradient>
		<path class="st10" d="M823.7,743.4l6.5,6.5c0.1,0.1,0.2,0.3,0.3,0.5c0-1.2,0.1-2.4,0.1-3.6c0-6.4-0.3-11.9-0.8-16.9h-0.6
			C828.2,734.8,826.3,739.3,823.7,743.4z"/>
		<radialGradient id="SVGID_11_" cx="621.6542" cy="564.7133" r="452.2422" gradientUnits="userSpaceOnUse">
			<stop  offset="0.2234" style="stop-color:#F9A51A"/>
			<stop  offset="0.6489" style="stop-color:#F26F21"/>
			<stop  offset="1" style="stop-color:#ED3024"/>
		</radialGradient>
		<path class="st11" d="M447.1,724.5c4.9-5,4.9-13,0-17.9c-5-5-13-5-17.9,0c-4.9,4.9-4.9,13,0,17.9
			C434.1,729.4,442.1,729.4,447.1,724.5z"/>
		<radialGradient id="SVGID_12_" cx="621.6542" cy="564.7339" r="452.2084" gradientUnits="userSpaceOnUse">
			<stop  offset="0.2234" style="stop-color:#F9A51A"/>
			<stop  offset="0.6489" style="stop-color:#F26F21"/>
			<stop  offset="1" style="stop-color:#ED3024"/>
		</radialGradient>
		<path class="st12" d="M447.1,770.9c4.9-4.9,4.9-13,0-17.9c-5-5-13-5-17.9,0c-4.9,4.9-4.9,13,0,17.9
			C434.1,775.9,442.1,775.9,447.1,770.9z"/>
		<radialGradient id="SVGID_13_" cx="621.6436" cy="564.7268" r="452.2144" gradientUnits="userSpaceOnUse">
			<stop  offset="0.2234" style="stop-color:#F9A51A"/>
			<stop  offset="0.6489" style="stop-color:#F26F21"/>
			<stop  offset="1" style="stop-color:#ED3024"/>
		</radialGradient>
		<path class="st13" d="M445.8,850.4c-6.6,30.1,29.7,51.8,52.9,30.5c10.1-9.3,13-23.6,7.9-35.8C494.7,816.6,452.6,819.6,445.8,850.4
			z"/>
		<radialGradient id="SVGID_14_" cx="621.6517" cy="564.718" r="452.2239" gradientUnits="userSpaceOnUse">
			<stop  offset="0.2234" style="stop-color:#F9A51A"/>
			<stop  offset="0.6489" style="stop-color:#F26F21"/>
			<stop  offset="1" style="stop-color:#ED3024"/>
		</radialGradient>
		<path class="st14" d="M423.9,729.8c-5-5-13-5-17.9,0c-4.9,4.9-4.9,13,0,17.9c4.9,4.9,13,4.9,17.9,0
			C428.8,742.7,428.8,734.7,423.9,729.8z"/>
		<radialGradient id="SVGID_15_" cx="621.6738" cy="564.718" r="452.2547" gradientUnits="userSpaceOnUse">
			<stop  offset="0.2234" style="stop-color:#F9A51A"/>
			<stop  offset="0.6489" style="stop-color:#F26F21"/>
			<stop  offset="1" style="stop-color:#ED3024"/>
		</radialGradient>
		<path class="st15" d="M452.4,747.7c5,4.9,13,4.9,17.9,0c4.9-5,4.9-13,0-17.9c-5-5-13-5-17.9,0
			C447.4,734.7,447.4,742.7,452.4,747.7z"/>
		<radialGradient id="SVGID_16_" cx="621.6446" cy="564.733" r="452.2082" gradientUnits="userSpaceOnUse">
			<stop  offset="0.2234" style="stop-color:#F9A51A"/>
			<stop  offset="0.6489" style="stop-color:#F26F21"/>
			<stop  offset="1" style="stop-color:#ED3024"/>
		</radialGradient>
		<path class="st16" d="M601.4,802.9c5.3-14.6-2.4-30.5-16.7-35.7c-23.2-8.4-45.2,15.6-34.7,38C560.5,827.6,593,826.1,601.4,802.9z"
			/>
		<radialGradient id="SVGID_17_" cx="621.644" cy="564.7335" r="452.2096" gradientUnits="userSpaceOnUse">
			<stop  offset="0.2234" style="stop-color:#F9A51A"/>
			<stop  offset="0.6489" style="stop-color:#F26F21"/>
			<stop  offset="1" style="stop-color:#ED3024"/>
		</radialGradient>
		<path class="st17" d="M674.6,747.7c-7.2,4.1-12.9,11-15.1,20.8c-6.6,30.1,29.7,51.8,52.9,30.4c10.1-9.3,13-23.6,7.9-35.8
			c-2-4.7-4.8-8.5-8.2-11.5C698.6,756.2,685.7,756.2,674.6,747.7z"/>
		<radialGradient id="SVGID_18_" cx="621.6463" cy="564.7381" r="452.2003" gradientUnits="userSpaceOnUse">
			<stop  offset="0.2234" style="stop-color:#F9A51A"/>
			<stop  offset="0.6489" style="stop-color:#F26F21"/>
			<stop  offset="1" style="stop-color:#ED3024"/>
		</radialGradient>
		<path class="st18" d="M570.7,707.6c4.5-4.2,7.6-9.4,9.1-15c-20.1-8.1-40.7-14.5-60.9-18.8c-0.4,1.1-0.8,2.2-1,3.4
			C511.2,707.3,547.5,728.9,570.7,707.6z"/>
		<radialGradient id="SVGID_19_" cx="621.6567" cy="564.7419" r="452.1811" gradientUnits="userSpaceOnUse">
			<stop  offset="0.2234" style="stop-color:#F9A51A"/>
			<stop  offset="0.6489" style="stop-color:#F26F21"/>
			<stop  offset="1" style="stop-color:#ED3024"/>
		</radialGradient>
		<path class="st19" d="M813.5,729.9c4.1-11.2,0.4-23.1-8-30.4c-12.5,2.3-28.5,13.5-45.7,25.3c0.4,2.5,1.1,5,2.3,7.4
			C772.7,754.7,805.1,753.2,813.5,729.9z"/>
		<radialGradient id="SVGID_20_" cx="621.6667" cy="564.6921" r="452.2593" gradientUnits="userSpaceOnUse">
			<stop  offset="0.2234" style="stop-color:#F9A51A"/>
			<stop  offset="0.6489" style="stop-color:#F26F21"/>
			<stop  offset="1" style="stop-color:#ED3024"/>
		</radialGradient>
		<path class="st20" d="M577.2,905c-4.9-5-13-5-17.9,0c-5,5-5,13,0,17.9c4.9,4.9,13,4.9,17.9,0C582.1,918,582.1,909.9,577.2,905z"/>
		<radialGradient id="SVGID_21_" cx="621.6529" cy="564.6921" r="452.2577" gradientUnits="userSpaceOnUse">
			<stop  offset="0.2234" style="stop-color:#F9A51A"/>
			<stop  offset="0.6489" style="stop-color:#F26F21"/>
			<stop  offset="1" style="stop-color:#ED3024"/>
		</radialGradient>
		<path class="st21" d="M605.7,905c-5,5-5,13,0,17.9c5,4.9,13,4.9,17.9,0c5-5,5-13,0-17.9C618.6,900,610.6,900,605.7,905z"/>
		<radialGradient id="SVGID_22_" cx="621.649" cy="564.7299" r="452.2078" gradientUnits="userSpaceOnUse">
			<stop  offset="0.2234" style="stop-color:#F9A51A"/>
			<stop  offset="0.6489" style="stop-color:#F26F21"/>
			<stop  offset="1" style="stop-color:#ED3024"/>
		</radialGradient>
		<path class="st22" d="M582.5,928.2c-5,5-5,13,0,17.9c4.9,5,13,5,17.9,0c5-5,5-13,0-17.9C595.4,923.2,587.4,923.2,582.5,928.2z"/>
		<radialGradient id="SVGID_23_" cx="621.6553" cy="564.7474" r="452.1813" gradientUnits="userSpaceOnUse">
			<stop  offset="0.2234" style="stop-color:#F9A51A"/>
			<stop  offset="0.6489" style="stop-color:#F26F21"/>
			<stop  offset="1" style="stop-color:#ED3024"/>
		</radialGradient>
		<path class="st23" d="M709.2,864.6c-20.1-7.3-39.2,13.5-30.1,32.9c9.1,19.4,37.2,18.1,44.5-2C728.3,882.8,721.6,869.1,709.2,864.6
			z"/>
		<radialGradient id="SVGID_24_" cx="621.6479" cy="564.7393" r="452.1985" gradientUnits="userSpaceOnUse">
			<stop  offset="0.2234" style="stop-color:#F9A51A"/>
			<stop  offset="0.6489" style="stop-color:#F26F21"/>
			<stop  offset="1" style="stop-color:#ED3024"/>
		</radialGradient>
		<path class="st24" d="M830.2,755.3l-8,8c-1.5,1.5-3.9,1.5-5.4,0l-6.5-6.5c-4.1,2.6-8.6,4.5-13.5,5.6v9.2c0,2.1-1.7,3.8-3.8,3.8
			h-11.4c-2.1,0-3.8-1.7-3.8-3.8v-9.2c-4.9-1.1-9.4-3-13.5-5.6l-6.5,6.5c-1.5,1.5-3.9,1.5-5.4,0l-8-8c-1.5-1.5-1.5-3.9,0-5.4
			l6.5-6.5c-1.9-3-3.3-6.3-4.4-9.7c-8.9,5.8-17.9,11.1-26.7,15l-1.8,1.7c2.9,3.2,5.3,6.8,6.9,10.9l11.7-4.8l3.3,12.4l-12.5,1.7
			c0.6,4.2,0.4,8.5-0.6,12.9l12.3,2.8l-4.4,12l-11.3-5.8c-2,3.9-4.7,7.3-7.9,10.2l8.5,9.4l-10.5,7.3l-5.9-11.2
			c-3.8,2-7.9,3.3-12.3,3.9l1.6,12.6h-12.8l1.6-12.6c-5.5-0.7-10.6-2.6-15.1-5.5l-6.9,10.6l-9.8-8.2l9.3-8.6
			c-2.9-3.2-5.3-6.8-6.9-10.9l-11.7,4.8l-3.3-12.4l12.5-1.7c-0.6-4.2-0.4-8.5,0.6-12.9l-12.3-2.8l4.4-12l11.3,5.8
			c2-3.8,4.7-7.3,7.9-10.2l-8.5-9.4l3-2.1c-19-13.9-40.9-26.6-64.2-37.1l-2.7,7.5l-11.3-5.8c-2,3.9-4.7,7.3-7.9,10.2l8.5,9.4
			l-10.5,7.3l-5.9-11.2c-3.8,2-7.9,3.3-12.3,3.9l1.6,12.6h-12.8l1.6-12.6c-5.5-0.7-10.6-2.6-15.1-5.5l-6.9,10.6l-9.8-8.2l9.3-8.6
			c-2.9-3.2-5.3-6.8-6.9-10.9l-11.7,4.8l-3.3-12.4l12.6-1.7c-0.6-4.2-0.4-8.5,0.6-12.9l-12.3-2.8l0.9-2.6
			c-71.2-11-132.1,7.1-132.1,76.2c0,47,14.1,90.8,38.3,127.2c41.3,62.3,112,103.4,192.3,103.4c67.2,0,127.7-28.8,169.8-74.6
			c36-39.2,58.6-90.9,60.6-147.8C830.3,755,830.3,755.2,830.2,755.3z M409.3,781.6c-1.5,1.5-4,1.5-5.6,0l-8.4-8.4
			c-1.5-1.5-1.5-4.1,0-5.6l5.6-5.6c-2.6-4.1-4.5-8.6-5.6-13.4h-7.9c-2.2,0-3.9-1.8-3.9-3.9v-11.9c0-2.2,1.8-3.9,3.9-3.9h7.9
			c1.1-4.8,3-9.3,5.6-13.4l-5.6-5.6c-1.5-1.5-1.5-4,0-5.6l8.4-8.4c1.5-1.5,4-1.5,5.6,0l5.6,5.6c4.1-2.6,8.6-4.5,13.4-5.6V688
			c0-2.2,1.8-3.9,3.9-3.9H444c2.2,0,4,1.8,4,3.9v7.9c4.8,1.1,9.3,3,13.4,5.6l5.6-5.6c1.5-1.5,4-1.5,5.6,0l8.4,8.4
			c1.5,1.5,1.5,4.1,0,5.6l-5.6,5.6c2.6,4.1,4.5,8.6,5.6,13.4h7.9c2.2,0,4,1.8,4,3.9v11.9c0,2.2-1.8,3.9-4,3.9H481
			c-1.1,4.8-3,9.3-5.6,13.4l5.6,5.6c1.5,1.5,1.5,4.1,0,5.6l-8.4,8.4c-1.5,1.5-4.1,1.5-5.6,0l-5.6-5.6c-4.1,2.6-8.6,4.5-13.4,5.6v7.9
			c0,2.2-1.8,4-4,4h-11.9c-2.2,0-3.9-1.8-3.9-4v-7.9c-4.8-1.1-9.3-3-13.4-5.6L409.3,781.6z M513.3,865.3l12.3,2.8l-4.4,12l-11.3-5.8
			c-2,3.9-4.7,7.3-7.9,10.2l8.5,9.4l-10.5,7.3l-5.9-11.2c-3.8,2-7.9,3.3-12.3,3.9l1.6,12.6h-12.8l1.6-12.6
			c-5.5-0.7-10.6-2.7-15.1-5.5l-6.9,10.6l-9.8-8.2l9.3-8.6c-2.9-3.2-5.3-6.8-6.9-10.9l-11.7,4.8l-3.3-12.4l12.5-1.7
			c-0.6-4.2-0.4-8.5,0.6-12.9l-12.3-2.8l4.4-12l11.3,5.8c2-3.9,4.7-7.3,7.9-10.2l-8.5-9.4l10.5-7.3l5.9,11.2c3.8-2,7.9-3.3,12.3-3.9
			l-1.6-12.6h12.8l-1.6,12.6c5.5,0.7,10.6,2.6,15.1,5.5l6.9-10.6l9.8,8.2l-9.3,8.6c2.9,3.2,5.3,6.8,6.9,10.9l11.7-4.8l3.3,12.3
			l-12.5,1.8C514.4,856.7,514.3,860.9,513.3,865.3z M532.4,822.8l6.5-6.5c-2.6-4.1-4.5-8.6-5.6-13.5h-9.2c-2.1,0-3.8-1.7-3.8-3.8
			v-11.4c0-2.1,1.7-3.8,3.8-3.8h9.2c1.1-4.8,3-9.4,5.6-13.5l-6.5-6.5c-1.5-1.5-1.5-3.9,0-5.4l8-8c1.5-1.5,3.9-1.5,5.4,0l6.5,6.5
			c4.1-2.6,8.6-4.5,13.5-5.6v-9.2c0-2.1,1.7-3.8,3.8-3.8h11.4c2.1,0,3.8,1.7,3.8,3.8v9.2c4.8,1.1,9.4,3,13.5,5.6l6.5-6.5
			c1.5-1.5,3.9-1.5,5.4,0l8,8c1.5,1.5,1.5,3.9,0,5.4l-6.5,6.5c2.6,4.1,4.5,8.6,5.6,13.5h9.2c2.1,0,3.8,1.7,3.8,3.8v11.4
			c0,2.1-1.7,3.8-3.8,3.8h-9.2c-1.1,4.8-3,9.4-5.6,13.5l6.5,6.5c1.5,1.5,1.5,3.9,0,5.4l-8,8c-1.5,1.5-3.9,1.5-5.4,0l-6.5-6.5
			c-4.1,2.6-8.6,4.5-13.5,5.6v9.2c0,2.1-1.7,3.8-3.8,3.8h-11.4c-2.1,0-3.8-1.7-3.8-3.8v-9.2c-4.8-1.1-9.4-3-13.5-5.6l-6.5,6.5
			c-1.5,1.5-3.9,1.5-5.4,0l-8-8C530.9,826.7,530.9,824.3,532.4,822.8z M646.1,919.9c0,2.2-1.8,4-4,4h-7.8c-1.1,4.8-3,9.3-5.6,13.4
			l5.6,5.6c1.5,1.5,1.5,4.1,0,5.6l-8.4,8.4c-1.5,1.5-4.1,1.5-5.6,0l-5.6-5.6c-4.1,2.6-8.6,4.5-13.4,5.6v7.9c0,2.2-1.8,3.9-4,3.9
			h-11.9c-2.2,0-4-1.8-4-3.9v-7.9c-4.8-1.1-9.3-3-13.4-5.6l-5.6,5.6c-1.5,1.5-4.1,1.5-5.6,0l-8.4-8.4c-1.5-1.5-1.5-4,0-5.6l5.6-5.6
			c-2.6-4.1-4.5-8.6-5.6-13.4h-7.9c-2.2,0-3.9-1.8-3.9-4V908c0-2.2,1.8-4,3.9-4h7.9c1.1-4.8,3-9.3,5.6-13.4l-5.6-5.6
			c-1.5-1.5-1.5-4,0-5.6l8.4-8.4c1.5-1.5,4.1-1.5,5.6,0l5.6,5.6c4.1-2.6,8.6-4.5,13.4-5.6v-7.9c0-2.2,1.8-4,4-4h11.9
			c2.2,0,4,1.8,4,4v7.9c4.8,1.1,9.3,3,13.4,5.6l5.6-5.6c1.5-1.5,4-1.5,5.6,0l8.4,8.4c1.5,1.5,1.5,4,0,5.6l-5.6,5.6
			c2.5,4.1,4.5,8.6,5.6,13.4h7.8c2.2,0,4,1.8,4,4V919.9z M748.6,892.2c0,1.8-1.5,3.3-3.3,3.3h-7.9c-0.9,4.2-2.6,8.1-4.8,11.7
			l5.6,5.6c1.3,1.3,1.3,3.4,0,4.7l-7,7c-1.3,1.3-3.4,1.3-4.7,0l-5.6-5.6c-3.5,2.2-7.5,3.9-11.7,4.8v7.9c0,1.8-1.5,3.3-3.3,3.3h-9.8
			c-1.8,0-3.3-1.5-3.3-3.3v-7.9c-4.2-1-8.1-2.6-11.7-4.8l-5.6,5.6c-1.3,1.3-3.4,1.3-4.7,0l-7-7c-1.3-1.3-1.3-3.4,0-4.7l5.6-5.6
			c-2.2-3.5-3.9-7.5-4.8-11.7h-8c-1.8,0-3.3-1.5-3.3-3.3v-9.9c0-1.8,1.5-3.3,3.3-3.3h8c0.9-4.2,2.6-8.1,4.8-11.7l-5.6-5.6
			c-1.3-1.3-1.3-3.4,0-4.6l7-7c1.3-1.3,3.4-1.3,4.7,0l5.6,5.6c3.5-2.2,7.5-3.9,11.7-4.8v-8c0-1.8,1.5-3.3,3.3-3.3h9.8
			c1.8,0,3.3,1.5,3.3,3.3v8c4.2,1,8.1,2.6,11.7,4.8l5.6-5.6c1.3-1.3,3.4-1.3,4.7,0l7,7c1.3,1.3,1.3,3.4,0,4.7l-5.6,5.6
			c2.2,3.5,3.9,7.5,4.8,11.7h7.9c1.8,0,3.3,1.5,3.3,3.3V892.2z"/>
		<radialGradient id="SVGID_25_" cx="621.649" cy="564.8073" r="452.0995" gradientUnits="userSpaceOnUse">
			<stop  offset="0.2234" style="stop-color:#F9A51A"/>
			<stop  offset="0.6489" style="stop-color:#F26F21"/>
			<stop  offset="1" style="stop-color:#ED3024"/>
		</radialGradient>
		<path class="st25" d="M600.4,899.7c5-5,5-13,0-17.9c-4.9-5-13-5-17.9,0c-5,4.9-5,13,0,17.9C587.4,904.7,595.4,904.7,600.4,899.7z"
			/>
	</g>
	<radialGradient id="SVGID_26_" cx="621.6502" cy="564.7337" r="452.1885" gradientUnits="userSpaceOnUse">
		<stop  offset="0.2234" style="stop-color:#F9A51A"/>
		<stop  offset="0.6489" style="stop-color:#F26F21"/>
		<stop  offset="1" style="stop-color:#ED3024"/>
	</radialGradient>
	<path class="st26" d="M617.5,233.6h-7.9c-1.1-4.8-3-9.3-5.6-13.4l5.6-5.6c1.5-1.5,1.5-4.1,0-5.6l-8.4-8.4c-1.5-1.5-4.1-1.5-5.6,0
		l-5.6,5.6c-4.1-2.6-8.6-4.5-13.4-5.6v-7.9c0-2.2-1.8-4-3.9-4h-11.9c-2.2,0-3.9,1.8-3.9,4v7.9c-4.8,1.1-9.3,3-13.4,5.6l-5.6-5.6
		c-1.5-1.5-4.1-1.5-5.6,0l-8.4,8.4c-1.5,1.5-1.5,4.1,0,5.6l5.6,5.6c-2.6,4.1-4.5,8.6-5.6,13.4h-7.9c-2.2,0-3.9,1.8-3.9,3.9v11.9
		c0,2.2,1.8,3.9,3.9,3.9h7.9c1.1,4.8,3,9.3,5.6,13.4l-5.6,5.6c-1.5,1.5-1.5,4.1,0,5.6l8.4,8.4c1.5,1.5,4,1.5,5.6,0l5.6-5.6
		c4.1,2.6,8.6,4.5,13.4,5.6v7.9c0,2.2,1.8,3.9,3.9,3.9h11.9c2.2,0,3.9-1.8,3.9-3.9v-7.9c4.8-1.1,9.3-3,13.4-5.6l5.6,5.6
		c1.5,1.5,4.1,1.5,5.6,0l8.4-8.4c1.5-1.5,1.5-4,0-5.6l-5.6-5.6c2.6-4.1,4.5-8.6,5.6-13.4h7.9c2.2,0,4-1.8,4-3.9v-11.9
		C621.5,235.4,619.7,233.6,617.5,233.6z M557.8,211.3c4.9-5,13-5,17.9,0c4.9,5,4.9,13,0,17.9c-5,4.9-13,4.9-17.9,0
		C552.9,224.3,552.9,216.3,557.8,211.3z M534.6,252.5c-4.9-5-4.9-13,0-17.9c4.9-5,13-5,17.9,0c4.9,4.9,4.9,13,0,17.9
		C547.6,257.4,539.6,257.4,534.6,252.5z M575.8,275.7c-5,5-13,5-17.9,0c-4.9-4.9-4.9-13,0-17.9c4.9-5,13-5,17.9,0
		C580.7,262.7,580.7,270.7,575.8,275.7z M599,252.5c-5,4.9-13,4.9-17.9,0c-5-5-5-13,0-17.9c4.9-5,13-5,17.9,0
		C603.9,239.5,603.9,247.5,599,252.5z"/>
	<radialGradient id="SVGID_27_" cx="621.6415" cy="564.7411" r="452.2015" gradientUnits="userSpaceOnUse">
		<stop  offset="0.2234" style="stop-color:#F9A51A"/>
		<stop  offset="0.6489" style="stop-color:#F26F21"/>
		<stop  offset="1" style="stop-color:#ED3024"/>
	</radialGradient>
	<path class="st27" d="M796.1,622.4h-7.9c-1.1-4.8-3-9.3-5.6-13.4l5.6-5.6c1.5-1.5,1.5-4.1,0-5.6l-8.4-8.4c-1.5-1.5-4.1-1.5-5.6,0
		l-5.6,5.6c-4.1-2.6-8.6-4.5-13.4-5.6v-7.8c0-2.2-1.8-4-3.9-4h-11.9c-2.2,0-3.9,1.8-3.9,4v7.8c-4.8,1.1-9.3,3-13.4,5.6l-5.6-5.6
		c-1.5-1.5-4-1.5-5.6,0l-8.4,8.4c-1.5,1.5-1.5,4,0,5.6l5.6,5.6c-2.6,4.1-4.5,8.6-5.6,13.4h-7.9c-2.2,0-4,1.8-4,4v11.9
		c0,2.2,1.8,4,4,4h7.9c1.1,4.8,3,9.3,5.6,13.4l-5.6,5.6c-1.5,1.5-1.5,4.1,0,5.6l8.4,8.4c1.5,1.5,4,1.5,5.6,0l5.6-5.6
		c4.1,2.6,8.6,4.5,13.4,5.6v7.9c0,2.2,1.8,3.9,3.9,3.9h11.9c2.2,0,3.9-1.8,3.9-3.9v-7.9c4.8-1.1,9.3-3,13.4-5.6l5.6,5.6
		c1.5,1.5,4.1,1.5,5.6,0l8.4-8.4c1.5-1.5,1.5-4.1,0-5.6l-5.6-5.6c2.5-4.1,4.5-8.6,5.6-13.4h7.9c2.2,0,4-1.8,4-4v-11.9
		C800,624.2,798.2,622.4,796.1,622.4z M736.4,600.1c5-5,13-5,17.9,0c4.9,4.9,4.9,13,0,17.9c-4.9,5-13,5-17.9,0
		C731.4,613.1,731.4,605.1,736.4,600.1z M713.2,641.2c-4.9-5-4.9-13,0-17.9c5-5,13-5,17.9,0c5,5,5,13,0,17.9
		C726.2,646.2,718.1,646.2,713.2,641.2z M754.3,664.5c-4.9,5-13,5-17.9,0c-4.9-4.9-4.9-13,0-17.9c5-5,13-5,17.9,0
		C759.3,651.5,759.3,659.5,754.3,664.5z M777.5,641.2c-5,5-13,5-17.9,0c-5-5-5-13,0-17.9c5-5,13-5,17.9,0
		C782.5,628.3,782.5,636.3,777.5,641.2z"/>
</g>
</svg>
