<?xml version="1.0" encoding="utf-8"?>
<!-- Generator: Adobe Illustrator 19.0.0, SVG Export Plug-In . SVG Version: 6.00 Build 0)  -->
<svg version="1.1" id="Layer_1" xmlns="http://www.w3.org/2000/svg" xmlns:xlink="http://www.w3.org/1999/xlink" x="0px" y="0px"
	 viewBox="626.3 507.3 283.5 283.5" style="enable-background:new 626.3 507.3 283.5 283.5;" xml:space="preserve">
<style type="text/css">
	.st0{fill:#9D9D9C;}
	.st1{fill:#808080;}
</style>
<g>
	<path class="st0" d="M863.8,668.9l-16.4-2c-2-11.5-6.5-22.1-12.9-31.4l10.3-12.9c2-2.5,1.8-6.5-0.5-8.9l-8.4-8.4
		c-2.3-2.3-6.3-2.6-8.9-0.6l-13,10.2c-2-1.4-4.1-2.7-6.3-4v-26.1h5.9c3.3,0,5.9-2.7,5.9-5.9v-5.9c0-3.3-2.7-5.9-5.9-5.9
		c-8.6,0-15.2,0-23.7,0c0,8.9,0,44.7,0,55.2c49.7,17.9,55.4,87.2,8.7,113.5c-49,27.6-106.1-18.5-91.2-71.7
		c5.9-20.9,20.1-35.4,38.4-41.9c0-8.1,0-46.9,0-55.1c-8.5,0-15.2,0-23.7,0c-3.3,0-5.9,2.7-5.9,5.9v5.9c0,3.3,2.7,5.9,5.9,5.9h5.9
		v26.1c-1.9,1.1-3.8,2.2-5.6,3.5l-12.9-10.3c-2.5-2-6.5-1.8-8.9,0.5l-8.4,8.4c-2.3,2.3-2.6,6.3-0.5,8.9l10.2,13
		c-6.4,9.2-11,19.8-13.2,31.3l-16.4,1.8c-3.2,0.4-5.9,3.3-5.9,6.6l0,11.9c0,3.3,2.6,6.3,5.9,6.7l16.4,2c2,11.5,6.5,22.1,12.9,31.4
		l-10.3,12.9c-2,2.5-1.8,6.5,0.5,8.9l8.4,8.4c2.3,2.3,6.3,2.6,8.9,0.5l13-10.2c9.2,6.4,19.8,11,31.3,13.2l1.8,16.4
		c0.3,3.2,3.3,5.9,6.6,5.9l11.9,0c3.3,0,6.3-2.6,6.7-5.9l2-16.4c11.5-2,22.1-6.5,31.4-12.9l12.9,10.3c2.5,2,6.5,1.8,8.9-0.5l8.4-8.4
		c2.3-2.3,2.6-6.3,0.5-8.9l-10.2-13c6.4-9.2,11-19.8,13.2-31.3l16.4-1.8c3.2-0.3,5.9-3.3,5.9-6.6l0-11.9
		C869.6,672.3,867,669.3,863.8,668.9z"/>
	<path class="st0" d="M761.6,779.6c-1.8,0-3.5-1.6-3.7-3.3l-2.1-18.5l-2.1-0.4c-10.9-2-21-6.3-30.1-12.7l-1.7-1.2l-14.7,11.5
		c-0.6,0.5-1.4,0.7-2.3,0.7c-1,0-2-0.4-2.7-1.1l-8.4-8.4c-1.2-1.3-1.4-3.6-0.3-5l11.6-14.6l-1.2-1.8c-6.3-9.2-10.5-19.4-12.4-30.3
		l-0.4-2.1l-18.5-2.2c-1.8-0.2-3.3-2-3.3-3.8l0-11.9c0-1.8,1.6-3.5,3.4-3.7l18.5-2.1l0.4-2.1c2-10.9,6.3-21.1,12.7-30.1l1.2-1.7
		l-11.5-14.7c-1.1-1.4-0.9-3.7,0.3-5l8.4-8.4c0.7-0.6,1.6-1,2.7-1c0.9,0,1.7,0.3,2.3,0.8l14.6,11.6l1.8-1.2c1.6-1.1,3.4-2.2,5.4-3.4
		l1.4-0.8v-30.7h-8.8c-1.7,0-3-1.4-3-3v-5.9c0-1.7,1.4-3,3-3h20.9V620c-19,7.4-32.6,22.7-38.3,43.2c-5.6,19.9-1.7,40.7,10.7,57.1
		c12.6,16.7,32.3,26.6,52.5,26.6c11.2,0,22-2.9,32.2-8.6c22.7-12.8,35.4-36.9,33.2-63c-2.1-25-17.5-45.9-40.5-55v-50.3h20.9
		c1.7,0,3,1.4,3,3v5.9c0,1.7-1.4,3-3,3H805v30.7l1.4,0.8c2.2,1.3,4.2,2.5,6.1,3.8l1.7,1.2l14.7-11.5c0.6-0.5,1.4-0.7,2.3-0.7
		c1,0,2,0.4,2.7,1.1l8.4,8.4c1.2,1.3,1.4,3.6,0.3,5L831,635.4l1.2,1.8c6.3,9.2,10.5,19.4,12.4,30.3l0.4,2.1l18.5,2.2
		c1.8,0.2,3.3,2,3.3,3.8l0,11.9c0,1.8-1.6,3.5-3.3,3.7l-18.5,2.1l-0.4,2.1c-2,10.9-6.3,21-12.7,30.1l-1.2,1.7l11.5,14.7
		c1.1,1.4,0.9,3.7-0.3,5l-8.4,8.4c-0.7,0.6-1.6,1-2.7,1c-0.9,0-1.7-0.3-2.3-0.8l-14.6-11.6l-1.8,1.2c-9.2,6.3-19.4,10.5-30.3,12.4
		l-2.1,0.4l-2.2,18.5c-0.2,1.8-2,3.3-3.7,3.3L761.6,779.6z"/>
	<path class="st0" d="M781.6,654.4l3.1-0.4l-0.8-3.1l-2.9,1.2c-0.4-1-1-1.9-1.7-2.7l2.3-2.1l-2.4-2l-1.7,2.6
		c-1.1-0.7-2.4-1.2-3.8-1.4l0.4-3.1h-3.2l0.4,3.1c-1.1,0.1-2.1,0.5-3.1,1l-1.5-2.8l-2.6,1.8l2.1,2.3c-0.8,0.7-1.4,1.6-2,2.5
		l-2.8-1.4l-1.1,3l3.1,0.7c-0.2,1.1-0.3,2.2-0.1,3.2l-3.1,0.4l0.8,3.1l2.9-1.2c0.4,1,1,1.9,1.7,2.7l-2.3,2.1l2.4,2l1.7-2.6
		c1.1,0.7,2.4,1.2,3.8,1.4l-0.4,3.1h3.2l-0.4-3.1c1.1-0.1,2.1-0.5,3.1-1l1.5,2.8l2.6-1.8l-2.1-2.3c0.8-0.7,1.4-1.6,1.9-2.5l2.8,1.4
		l1.1-3l-3.1-0.7C781.7,656.6,781.7,655.5,781.6,654.4z M777.8,661.5c-5.8,5.3-14.9-0.1-13.2-7.6c1.7-7.7,12.2-8.5,15.2-1.3
		C781.1,655.6,780.3,659.2,777.8,661.5z"/>
	<path class="st0" d="M799.3,542.8l3.1-0.4l-0.8-3.1l-2.9,1.2c-0.4-1-1-1.9-1.7-2.7l2.3-2.1l-2.4-2l-1.7,2.6
		c-1.1-0.7-2.4-1.2-3.8-1.4l0.4-3.1h-3.2l0.4,3.1c-1.1,0.1-2.1,0.5-3.1,1l-1.5-2.8l-2.6,1.8l2.1,2.3c-0.8,0.7-1.4,1.6-2,2.5
		l-2.8-1.4l-1.1,3l3.1,0.7c-0.2,1.1-0.3,2.2-0.1,3.2l-3.1,0.4l0.8,3.1l2.9-1.2c0.4,1,1,1.9,1.7,2.7l-2.3,2.1l2.4,2l1.7-2.6
		c1.1,0.7,2.4,1.2,3.8,1.4l-0.4,3.1h3.2l-0.4-3.1c1.1-0.1,2.1-0.5,3.1-1l1.5,2.8l2.6-1.8l-2.1-2.3c0.8-0.7,1.4-1.6,2-2.5l2.8,1.4
		l1.1-3l-3.1-0.7C799.4,545,799.4,543.9,799.3,542.8z M795.5,549.9c-5.8,5.3-14.9-0.1-13.2-7.6c1.7-7.7,12.2-8.5,15.2-1.3
		C798.7,544,798,547.6,795.5,549.9z"/>
	<path class="st0" d="M758.4,638.6h-2c-0.2-1-0.6-2-1.2-2.9l1.4-1.4c0.3-0.3,0.3-0.8,0-1.1l-1.7-1.7c-0.3-0.3-0.8-0.3-1.1,0
		l-1.4,1.4c-0.9-0.5-1.9-1-2.9-1.2v-2c0-0.4-0.4-0.8-0.8-0.8h-2.5c-0.4,0-0.8,0.4-0.8,0.8v2c-1,0.2-2,0.6-2.9,1.2l-1.4-1.4
		c-0.3-0.3-0.8-0.3-1.2,0l-1.7,1.7c-0.3,0.3-0.3,0.8,0,1.1l1.4,1.4c-0.5,0.9-1,1.9-1.2,2.9h-2c-0.4,0-0.8,0.4-0.8,0.8v2.5
		c0,0.4,0.4,0.8,0.8,0.8h2c0.2,1,0.6,2,1.2,2.9L738,647c-0.3,0.3-0.3,0.8,0,1.2l1.7,1.7c0.3,0.3,0.8,0.3,1.2,0l1.4-1.4
		c0.9,0.5,1.9,1,2.9,1.2v2c0,0.4,0.4,0.8,0.8,0.8h2.5c0.4,0,0.8-0.4,0.8-0.8v-2c1-0.2,2-0.6,2.9-1.2l1.4,1.4c0.3,0.3,0.8,0.3,1.1,0
		l1.7-1.7c0.3-0.3,0.3-0.8,0-1.2l-1.4-1.4c0.5-0.9,1-1.9,1.2-2.9h2c0.4,0,0.8-0.4,0.8-0.8v-2.5C759.2,638.9,758.8,638.6,758.4,638.6
		z M741.9,643.2c-2.3-4.8,2.5-10,7.5-8.2c3.1,1.1,4.7,4.6,3.6,7.7C751.2,647.7,744.2,648,741.9,643.2z"/>
	<path class="st0" d="M785.5,598.3h-2c-0.2-1-0.6-2-1.2-2.9l1.4-1.4c0.3-0.3,0.3-0.8,0-1.1l-1.7-1.7c-0.3-0.3-0.8-0.3-1.1,0
		l-1.4,1.4c-0.9-0.5-1.9-1-2.9-1.2v-2c0-0.4-0.4-0.8-0.8-0.8h-2.5c-0.4,0-0.8,0.4-0.8,0.8v2c-1,0.2-2,0.6-2.9,1.2l-1.4-1.4
		c-0.3-0.3-0.8-0.3-1.2,0l-1.7,1.7c-0.3,0.3-0.3,0.8,0,1.1l1.4,1.4c-0.5,0.9-1,1.9-1.2,2.9h-2c-0.4,0-0.8,0.4-0.8,0.8v2.5
		c0,0.4,0.4,0.8,0.8,0.8h2c0.2,1,0.6,2,1.2,2.9l-1.4,1.4c-0.3,0.3-0.3,0.8,0,1.1l1.7,1.7c0.3,0.3,0.8,0.3,1.2,0l1.4-1.4
		c0.9,0.5,1.9,1,2.9,1.2v2c0,0.4,0.4,0.8,0.8,0.8h2.5c0.4,0,0.8-0.4,0.8-0.8v-2c1-0.2,2-0.6,2.9-1.2l1.4,1.4c0.3,0.3,0.8,0.3,1.1,0
		l1.7-1.7c0.3-0.3,0.3-0.8,0-1.1l-1.4-1.4c0.5-0.9,1-1.9,1.2-2.9h2c0.4,0,0.8-0.4,0.8-0.8v-2.5C786.3,598.7,786,598.3,785.5,598.3z
		 M769,602.9c-2.3-4.8,2.5-10,7.5-8.2c3.1,1.1,4.8,4.6,3.6,7.7C778.3,607.5,771.3,607.8,769,602.9z"/>
	<path class="st0" d="M757.1,523.6h-2c-0.2-1-0.6-2-1.2-2.9l1.4-1.4c0.3-0.3,0.3-0.8,0-1.1l-1.7-1.7c-0.3-0.3-0.8-0.3-1.2,0
		l-1.4,1.4c-0.9-0.5-1.9-1-2.9-1.2v-2c0-0.4-0.4-0.8-0.8-0.8h-2.5c-0.4,0-0.8,0.4-0.8,0.8v2c-1,0.2-2,0.6-2.9,1.2l-1.4-1.4
		c-0.3-0.3-0.8-0.3-1.1,0l-1.7,1.7c-0.3,0.3-0.3,0.8,0,1.1l1.4,1.4c-0.5,0.9-1,1.9-1.2,2.9h-2c-0.4,0-0.8,0.4-0.8,0.8v2.5
		c0,0.4,0.4,0.8,0.8,0.8h2c0.2,1,0.6,2,1.2,2.9l-1.4,1.4c-0.3,0.3-0.3,0.8,0,1.2l1.7,1.7c0.3,0.3,0.8,0.3,1.1,0l1.4-1.4
		c0.9,0.5,1.9,1,2.9,1.2v2c0,0.4,0.4,0.8,0.8,0.8h2.5c0.4,0,0.8-0.4,0.8-0.8v-2c1-0.2,2-0.6,2.9-1.2l1.4,1.4c0.3,0.3,0.8,0.3,1.2,0
		l1.7-1.7c0.3-0.3,0.3-0.8,0-1.2l-1.4-1.4c0.5-0.9,1-1.9,1.2-2.9h2c0.4,0,0.8-0.4,0.8-0.8v-2.5C758,524,757.6,523.6,757.1,523.6z
		 M740.6,528.2c-2.3-4.8,2.5-10,7.5-8.2c3.1,1.1,4.8,4.6,3.6,7.7C749.9,532.7,742.9,533.1,740.6,528.2z"/>
	<g>
		<path class="st0" d="M823.9,681.2l1.6,1.6c0,0,0,0.1,0.1,0.1c0-0.3,0-0.6,0-0.9c0-1.6-0.1-3-0.2-4.2h-0.1
			C825,679,824.5,680.2,823.9,681.2z"/>
		<path class="st0" d="M729.9,676.5c1.2-1.2,1.2-3.2,0-4.5c-1.2-1.2-3.2-1.2-4.5,0c-1.2,1.2-1.2,3.2,0,4.5
			C726.6,677.7,728.6,677.7,729.9,676.5z"/>
		<path class="st0" d="M729.9,688.1c1.2-1.2,1.2-3.2,0-4.5c-1.2-1.2-3.2-1.2-4.5,0c-1.2,1.2-1.2,3.2,0,4.5
			C726.6,689.3,728.6,689.3,729.9,688.1z"/>
		<path class="st0" d="M729.5,707.9c-1.6,7.5,7.4,12.9,13.2,7.6c2.5-2.3,3.2-5.9,2-8.9C741.7,699.5,731.2,700.2,729.5,707.9z"/>
		<path class="st0" d="M724.1,677.8c-1.2-1.2-3.2-1.2-4.5,0c-1.2,1.2-1.2,3.2,0,4.5c1.2,1.2,3.2,1.2,4.5,0
			C725.3,681,725.3,679,724.1,677.8z"/>
		<path class="st0" d="M731.2,682.3c1.2,1.2,3.2,1.2,4.5,0c1.2-1.2,1.2-3.2,0-4.5c-1.2-1.2-3.2-1.2-4.5,0
			C729.9,679,729.9,681,731.2,682.3z"/>
		<path class="st0" d="M768.4,696.1c1.3-3.6-0.6-7.6-4.2-8.9c-5.8-2.1-11.3,3.9-8.7,9.5C758.2,702.2,766.3,701.8,768.4,696.1z"/>
		<path class="st0" d="M786.7,682.3c-1.8,1-3.2,2.7-3.8,5.2c-1.6,7.5,7.4,12.9,13.2,7.6c2.5-2.3,3.2-5.9,2-8.9
			c-0.5-1.2-1.2-2.1-2-2.9C792.7,684.4,789.4,684.4,786.7,682.3z"/>
		<path class="st0" d="M760.7,672.3c1.1-1,1.9-2.3,2.3-3.7c-5-2-10.2-3.6-15.2-4.7c-0.1,0.3-0.2,0.5-0.2,0.8
			C745.9,672.2,754.9,677.6,760.7,672.3z"/>
		<path class="st0" d="M821.4,677.8c1-2.8,0.1-5.8-2-7.6c-3.1,0.6-7.1,3.4-11.4,6.3c0.1,0.6,0.3,1.2,0.6,1.8
			C811.2,684,819.3,683.6,821.4,677.8z"/>
		<path class="st0" d="M762.3,721.6c-1.2-1.2-3.2-1.2-4.5,0c-1.2,1.2-1.2,3.2,0,4.5c1.2,1.2,3.2,1.2,4.5,0
			C763.6,724.8,763.6,722.8,762.3,721.6z"/>
		<path class="st0" d="M769.5,721.6c-1.2,1.2-1.2,3.2,0,4.5c1.2,1.2,3.2,1.2,4.5,0c1.2-1.2,1.2-3.2,0-4.5
			C772.7,720.3,770.7,720.3,769.5,721.6z"/>
		<path class="st0" d="M763.7,727.3c-1.2,1.2-1.2,3.2,0,4.5c1.2,1.2,3.2,1.2,4.5,0c1.2-1.2,1.2-3.2,0-4.5
			C766.9,726.1,764.9,726.1,763.7,727.3z"/>
		<path class="st0" d="M795.3,711.5c-5-1.8-9.8,3.4-7.5,8.2c2.3,4.8,9.3,4.5,11.1-0.5C800.1,716,798.4,712.6,795.3,711.5z"/>
		<path class="st0" d="M825.5,684.2l-2,2c-0.4,0.4-1,0.4-1.3,0l-1.6-1.6c-1,0.6-2.1,1.1-3.4,1.4v2.3c0,0.5-0.4,0.9-0.9,0.9h-2.8
			c-0.5,0-0.9-0.4-0.9-0.9v-2.3c-1.2-0.3-2.3-0.7-3.4-1.4l-1.6,1.6c-0.4,0.4-1,0.4-1.3,0l-2-2c-0.4-0.4-0.4-1,0-1.3l1.6-1.6
			c-0.5-0.7-0.8-1.6-1.1-2.4c-2.2,1.4-4.5,2.8-6.7,3.7l-0.4,0.4c0.7,0.8,1.3,1.7,1.7,2.7l2.9-1.2l0.8,3.1l-3.1,0.4
			c0.1,1,0.1,2.1-0.1,3.2l3.1,0.7l-1.1,3l-2.8-1.4c-0.5,1-1.2,1.8-2,2.5l2.1,2.3l-2.6,1.8l-1.5-2.8c-0.9,0.5-2,0.8-3.1,1l0.4,3.1
			H789l0.4-3.1c-1.4-0.2-2.6-0.6-3.8-1.4l-1.7,2.6l-2.4-2l2.3-2.1c-0.7-0.8-1.3-1.7-1.7-2.7l-2.9,1.2l-0.8-3.1l3.1-0.4
			c-0.1-1-0.1-2.1,0.1-3.2l-3.1-0.7l1.1-3l2.8,1.4c0.5-0.9,1.2-1.8,2-2.5l-2.1-2.3l0.7-0.5c-4.7-3.5-10.2-6.6-16-9.3l-0.7,1.9
			l-2.8-1.4c-0.5,1-1.2,1.8-2,2.5l2.1,2.3l-2.6,1.8l-1.5-2.8c-0.9,0.5-2,0.8-3.1,1l0.4,3.1h-3.2l0.4-3.1c-1.4-0.2-2.6-0.6-3.8-1.4
			l-1.7,2.6l-2.4-2l2.3-2.1c-0.7-0.8-1.3-1.7-1.7-2.7l-2.9,1.2L743,668l3.1-0.4c-0.1-1-0.1-2.1,0.1-3.2l-3.1-0.7l0.2-0.6
			c-17.8-2.7-33,1.8-33,19c0,11.7,3.5,22.7,9.6,31.8c10.3,15.6,28,25.8,48,25.8c16.8,0,31.9-7.2,42.4-18.6
			C819.5,711.2,825.1,698.3,825.5,684.2C825.5,684.1,825.5,684.1,825.5,684.2z M720.4,690.7c-0.4,0.4-1,0.4-1.4,0l-2.1-2.1
			c-0.4-0.4-0.4-1,0-1.4l1.4-1.4c-0.6-1-1.1-2.1-1.4-3.3h-2c-0.5,0-1-0.4-1-1v-3c0-0.5,0.4-1,1-1h2c0.3-1.2,0.7-2.3,1.4-3.3
			l-1.4-1.4c-0.4-0.4-0.4-1,0-1.4l2.1-2.1c0.4-0.4,1-0.4,1.4,0l1.4,1.4c1-0.6,2.1-1.1,3.3-1.4v-2c0-0.5,0.4-1,1-1h2.9
			c0.5,0,1,0.4,1,1v2c1.2,0.3,2.3,0.7,3.3,1.4l1.4-1.4c0.4-0.4,1-0.4,1.4,0l2.1,2.1c0.4,0.4,0.4,1,0,1.4l-1.4,1.4
			c0.6,1,1.1,2.1,1.4,3.3h2c0.5,0,1,0.4,1,1v3c0,0.5-0.4,1-1,1h-2c-0.3,1.2-0.7,2.3-1.4,3.3l1.4,1.4c0.4,0.4,0.4,1,0,1.4l-2.1,2.1
			c-0.4,0.4-1,0.4-1.4,0l-1.4-1.4c-1,0.6-2.1,1.1-3.3,1.4v2c0,0.5-0.4,1-1,1h-3c-0.5,0-1-0.4-1-1v-2c-1.2-0.3-2.3-0.7-3.3-1.4
			L720.4,690.7z M746.4,711.6l3.1,0.7l-1.1,3l-2.8-1.4c-0.5,1-1.2,1.8-2,2.5l2.1,2.3l-2.6,1.8l-1.5-2.8c-0.9,0.5-2,0.8-3.1,1
			l0.4,3.1h-3.2l0.4-3.1c-1.4-0.2-2.6-0.7-3.8-1.4l-1.7,2.6l-2.4-2l2.3-2.1c-0.7-0.8-1.3-1.7-1.7-2.7l-2.9,1.2l-0.8-3.1l3.1-0.4
			c-0.1-1-0.1-2.1,0.1-3.2l-3.1-0.7l1.1-3l2.8,1.4c0.5-1,1.2-1.8,2-2.5l-2.1-2.3l2.6-1.8l1.5,2.8c0.9-0.5,2-0.8,3.1-1l-0.4-3.1h3.2
			l-0.4,3.1c1.4,0.2,2.6,0.6,3.8,1.4l1.7-2.6l2.4,2l-2.3,2.1c0.7,0.8,1.3,1.7,1.7,2.7l2.9-1.2l0.8,3.1l-3.1,0.4
			C746.7,709.5,746.6,710.5,746.4,711.6z M751.2,701l1.6-1.6c-0.6-1-1.1-2.1-1.4-3.4h-2.3c-0.5,0-0.9-0.4-0.9-0.9v-2.8
			c0-0.5,0.4-0.9,0.9-0.9h2.3c0.3-1.2,0.7-2.3,1.4-3.4l-1.6-1.6c-0.4-0.4-0.4-1,0-1.3l2-2c0.4-0.4,1-0.4,1.3,0l1.6,1.6
			c1-0.6,2.1-1.1,3.4-1.4v-2.3c0-0.5,0.4-0.9,0.9-0.9h2.8c0.5,0,0.9,0.4,0.9,0.9v2.3c1.2,0.3,2.3,0.7,3.4,1.4l1.6-1.6
			c0.4-0.4,1-0.4,1.3,0l2,2c0.4,0.4,0.4,1,0,1.3l-1.6,1.6c0.6,1,1.1,2.1,1.4,3.4h2.3c0.5,0,0.9,0.4,0.9,0.9v2.8
			c0,0.5-0.4,0.9-0.9,0.9h-2.3c-0.3,1.2-0.7,2.3-1.4,3.4l1.6,1.6c0.4,0.4,0.4,1,0,1.3l-2,2c-0.4,0.4-1,0.4-1.3,0l-1.6-1.6
			c-1,0.6-2.1,1.1-3.4,1.4v2.3c0,0.5-0.4,0.9-0.9,0.9h-2.8c-0.5,0-0.9-0.4-0.9-0.9v-2.3c-1.2-0.3-2.3-0.7-3.4-1.4l-1.6,1.6
			c-0.4,0.4-1,0.4-1.3,0l-2-2C750.8,702,750.8,701.4,751.2,701z M779.5,725.3c0,0.5-0.4,1-1,1h-1.9c-0.3,1.2-0.7,2.3-1.4,3.3
			l1.4,1.4c0.4,0.4,0.4,1,0,1.4l-2.1,2.1c-0.4,0.4-1,0.4-1.4,0l-1.4-1.4c-1,0.6-2.1,1.1-3.3,1.4v2c0,0.5-0.4,1-1,1h-3
			c-0.5,0-1-0.4-1-1v-2c-1.2-0.3-2.3-0.7-3.3-1.4l-1.4,1.4c-0.4,0.4-1,0.4-1.4,0l-2.1-2.1c-0.4-0.4-0.4-1,0-1.4l1.4-1.4
			c-0.6-1-1.1-2.1-1.4-3.3h-2c-0.5,0-1-0.4-1-1v-3c0-0.5,0.4-1,1-1h2c0.3-1.2,0.7-2.3,1.4-3.3l-1.4-1.4c-0.4-0.4-0.4-1,0-1.4
			l2.1-2.1c0.4-0.4,1-0.4,1.4,0l1.4,1.4c1-0.6,2.1-1.1,3.3-1.4v-2c0-0.5,0.4-1,1-1h3c0.5,0,1,0.4,1,1v2c1.2,0.3,2.3,0.7,3.3,1.4
			l1.4-1.4c0.4-0.4,1-0.4,1.4,0l2.1,2.1c0.4,0.4,0.4,1,0,1.4l-1.4,1.4c0.6,1,1.1,2.1,1.4,3.3h1.9c0.5,0,1,0.4,1,1V725.3z
			 M805.1,718.4c0,0.4-0.4,0.8-0.8,0.8h-2c-0.2,1-0.6,2-1.2,2.9l1.4,1.4c0.3,0.3,0.3,0.8,0,1.2l-1.7,1.7c-0.3,0.3-0.8,0.3-1.2,0
			l-1.4-1.4c-0.9,0.5-1.9,1-2.9,1.2v2c0,0.4-0.4,0.8-0.8,0.8H792c-0.4,0-0.8-0.4-0.8-0.8v-2c-1-0.2-2-0.6-2.9-1.2l-1.4,1.4
			c-0.3,0.3-0.8,0.3-1.2,0l-1.7-1.7c-0.3-0.3-0.3-0.8,0-1.2l1.4-1.4c-0.5-0.9-1-1.9-1.2-2.9h-2c-0.4,0-0.8-0.4-0.8-0.8v-2.5
			c0-0.4,0.4-0.8,0.8-0.8h2c0.2-1,0.6-2,1.2-2.9l-1.4-1.4c-0.3-0.3-0.3-0.8,0-1.1l1.7-1.7c0.3-0.3,0.8-0.3,1.2,0l1.4,1.4
			c0.9-0.5,1.9-1,2.9-1.2v-2c0-0.4,0.4-0.8,0.8-0.8h2.4c0.4,0,0.8,0.4,0.8,0.8v2c1,0.2,2,0.6,2.9,1.2l1.4-1.4c0.3-0.3,0.8-0.3,1.2,0
			l1.7,1.7c0.3,0.3,0.3,0.8,0,1.2l-1.4,1.4c0.5,0.9,1,1.9,1.2,2.9h2c0.4,0,0.8,0.4,0.8,0.8V718.4z"/>
		<path class="st0" d="M768.1,720.2c1.2-1.2,1.2-3.2,0-4.5c-1.2-1.2-3.2-1.2-4.5,0c-1.2,1.2-1.2,3.2,0,4.5
			C764.9,721.5,766.9,721.5,768.1,720.2z"/>
	</g>
	<path class="st0" d="M772.4,553.9h-2c-0.3-1.2-0.7-2.3-1.4-3.3l1.4-1.4c0.4-0.4,0.4-1,0-1.4l-2.1-2.1c-0.4-0.4-1-0.4-1.4,0
		l-1.4,1.4c-1-0.6-2.1-1.1-3.3-1.4v-2c0-0.5-0.4-1-1-1h-3c-0.5,0-1,0.4-1,1v2c-1.2,0.3-2.3,0.7-3.3,1.4l-1.4-1.4
		c-0.4-0.4-1-0.4-1.4,0l-2.1,2.1c-0.4,0.4-0.4,1,0,1.4l1.4,1.4c-0.6,1-1.1,2.1-1.4,3.3h-2c-0.5,0-1,0.4-1,1v3c0,0.5,0.4,1,1,1h2
		c0.3,1.2,0.7,2.3,1.4,3.3l-1.4,1.4c-0.4,0.4-0.4,1,0,1.4l2.1,2.1c0.4,0.4,1,0.4,1.4,0l1.4-1.4c1,0.6,2.1,1.1,3.3,1.4v2
		c0,0.5,0.4,1,1,1h3c0.5,0,1-0.4,1-1v-2c1.2-0.3,2.3-0.7,3.3-1.4l1.4,1.4c0.4,0.4,1,0.4,1.4,0l2.1-2.1c0.4-0.4,0.4-1,0-1.4l-1.4-1.4
		c0.6-1,1.1-2.1,1.4-3.3h2c0.5,0,1-0.4,1-1v-3C773.4,554.3,773,553.9,772.4,553.9z M757.5,548.3c1.2-1.2,3.2-1.2,4.5,0
		c1.2,1.2,1.2,3.2,0,4.5c-1.2,1.2-3.2,1.2-4.5,0C756.3,551.6,756.3,549.6,757.5,548.3z M751.7,558.6c-1.2-1.2-1.2-3.2,0-4.5
		c1.2-1.2,3.2-1.2,4.5,0c1.2,1.2,1.2,3.2,0,4.5C755,559.8,753,559.8,751.7,558.6z M762,564.4c-1.2,1.2-3.2,1.2-4.5,0
		c-1.2-1.2-1.2-3.2,0-4.5c1.2-1.2,3.2-1.2,4.5,0C763.2,561.2,763.2,563.2,762,564.4z M767.8,558.6c-1.2,1.2-3.2,1.2-4.5,0
		c-1.2-1.2-1.2-3.2,0-4.5c1.2-1.2,3.2-1.2,4.5,0C769,555.4,769,557.4,767.8,558.6z"/>
	<path class="st0" d="M817,651h-2c-0.3-1.2-0.7-2.3-1.4-3.3l1.4-1.4c0.4-0.4,0.4-1,0-1.4l-2.1-2.1c-0.4-0.4-1-0.4-1.4,0l-1.4,1.4
		c-1-0.6-2.1-1.1-3.3-1.4v-1.9c0-0.5-0.4-1-1-1h-3c-0.5,0-1,0.4-1,1v1.9c-1.2,0.3-2.3,0.7-3.3,1.4l-1.4-1.4c-0.4-0.4-1-0.4-1.4,0
		l-2.1,2.1c-0.4,0.4-0.4,1,0,1.4l1.4,1.4c-0.6,1-1.1,2.1-1.4,3.3h-2c-0.5,0-1,0.4-1,1v3c0,0.5,0.4,1,1,1h2c0.3,1.2,0.7,2.3,1.4,3.3
		l-1.4,1.4c-0.4,0.4-0.4,1,0,1.4l2.1,2.1c0.4,0.4,1,0.4,1.4,0l1.4-1.4c1,0.6,2.1,1.1,3.3,1.4v2c0,0.5,0.4,1,1,1h3c0.5,0,1-0.4,1-1
		v-2c1.2-0.3,2.3-0.7,3.3-1.4l1.4,1.4c0.4,0.4,1,0.4,1.4,0l2.1-2.1c0.4-0.4,0.4-1,0-1.4l-1.4-1.4c0.6-1,1.1-2.1,1.4-3.3h2
		c0.5,0,1-0.4,1-1v-3C818,651.4,817.5,651,817,651z M802.1,645.4c1.2-1.2,3.2-1.2,4.5,0c1.2,1.2,1.2,3.2,0,4.5
		c-1.2,1.2-3.2,1.2-4.5,0C800.8,648.7,800.8,646.7,802.1,645.4z M796.3,655.7c-1.2-1.2-1.2-3.2,0-4.5c1.2-1.2,3.2-1.2,4.5,0
		c1.2,1.2,1.2,3.2,0,4.5C799.6,656.9,797.5,656.9,796.3,655.7z M806.6,661.5c-1.2,1.2-3.2,1.2-4.5,0c-1.2-1.2-1.2-3.2,0-4.5
		c1.2-1.2,3.2-1.2,4.5,0C807.8,658.2,807.8,660.2,806.6,661.5z M812.4,655.7c-1.2,1.2-3.2,1.2-4.5,0c-1.2-1.2-1.2-3.2,0-4.5
		c1.2-1.2,3.2-1.2,4.5,0C813.6,652.5,813.6,654.5,812.4,655.7z"/>
</g>
<g>
	<path class="st1" d="M893.4,509.3c7.9,0,14.3,6.4,14.3,14.3v250.9c0,7.9-6.4,14.3-14.3,14.3H642.6c-7.9,0-14.3-6.4-14.3-14.3V523.6
		c0-7.9,6.4-14.3,14.3-14.3H893.4 M893.4,507.3H642.6c-9,0-16.3,7.3-16.3,16.3v250.9c0,9,7.3,16.3,16.3,16.3h250.9
		c9,0,16.3-7.3,16.3-16.3V523.6C909.7,514.6,902.4,507.3,893.4,507.3L893.4,507.3z"/>
</g>
</svg>
