<?xml version="1.0" encoding="utf-8"?>
<!-- Generator: Adobe Illustrator 19.0.0, SVG Export Plug-In . SVG Version: 6.00 Build 0)  -->
<svg version="1.1" id="Capa_1" xmlns="http://www.w3.org/2000/svg" xmlns:xlink="http://www.w3.org/1999/xlink" x="0px" y="0px"
	 viewBox="-300.3 507.3 283.5 283.5" style="enable-background:new -300.3 507.3 283.5 283.5;" xml:space="preserve">
<style type="text/css">
	.st0{fill:#9D9D9C;}
	.st1{fill:#808080;}
</style>
<path class="st0" d="M-45.5,642.1l-102.6-102.6c-5.9-5.9-15.5-5.9-21.4,0l-21.3,21.3l27,27c6.3-2.1,13.5-0.7,18.5,4.3
	c5,5,6.4,12.3,4.3,18.6l26,26c6.3-2.2,13.6-0.8,18.6,4.3c7,7,7,18.4,0,25.5c-7,7-18.4,7-25.5,0c-5.3-5.3-6.6-13.1-3.9-19.6
	l-24.3-24.3l0,63.9c1.7,0.8,3.3,2,4.8,3.4c7,7,7,18.4,0,25.5c-7,7-18.4,7-25.5,0c-7-7-7-18.4,0-25.5c1.7-1.7,3.7-3,5.9-3.9v-64.5
	c-2.1-0.9-4.2-2.2-5.9-3.9c-5.3-5.3-6.6-13.1-3.9-19.7l-26.6-26.6l-70.4,70.3c-5.9,5.9-5.9,15.5,0,21.4L-169,765.6
	c5.9,5.9,15.5,5.9,21.4,0l102.1-102.1C-39.5,657.6-39.5,648-45.5,642.1"/>
<g>
	<path class="st1" d="M-33.1,509.3c7.9,0,14.3,6.4,14.3,14.3v250.9c0,7.9-6.4,14.3-14.3,14.3H-284c-7.9,0-14.3-6.4-14.3-14.3V523.6
		c0-7.9,6.4-14.3,14.3-14.3H-33.1 M-33.1,507.3H-284c-9,0-16.3,7.3-16.3,16.3v250.9c0,9,7.3,16.3,16.3,16.3h250.9
		c9,0,16.3-7.3,16.3-16.3V523.6C-16.8,514.6-24.1,507.3-33.1,507.3L-33.1,507.3z"/>
</g>
</svg>
