<?xml version="1.0" encoding="utf-8"?>
<!-- Generator: Adobe Illustrator 19.0.0, SVG Export Plug-In . SVG Version: 6.00 Build 0)  -->
<svg version="1.1" id="Capa_1" xmlns="http://www.w3.org/2000/svg" xmlns:xlink="http://www.w3.org/1999/xlink" x="0px" y="0px"
	 viewBox="-356.7 506.8 283.5 283.5" style="enable-background:new -356.7 506.8 283.5 283.5;" xml:space="preserve">
<style type="text/css">
	.st0{fill:#FEFEFE;}
	.st1{fill:#9D9D9C;}
	.st2{fill:#646363;}
	.st3{fill:#808080;}
</style>
<title>Page 1</title>
<desc>Created with Sketch.</desc>
<g>
	<path id="Fill-2" class="st0" d="M-122.3,575.7l-77.7-46.1c-9.3-5.5-20.7-5.5-30,0l-77.7,46.1c-9.3,5.5-15,15.7-15,26.7v92.2
		c0,11,5.7,21.2,15,26.7l77.7,46.1c4.6,2.8,9.8,4.1,15,4.1c5.2,0,10.3-1.4,15-4.1l77.7-46.1c9.3-5.5,15-15.7,15-26.7v-92.2
		C-107.3,591.4-113.1,581.2-122.3,575.7z"/>
	<path id="Fill-4" class="st1" d="M-227.3,762.7l-77.7-46.1c-7.6-4.5-12.3-12.9-12.3-22v-92.2c0-9,4.7-17.5,12.3-22l77.7-46.1
		c3.7-2.2,8-3.4,12.3-3.4c4.3,0,8.5,1.2,12.3,3.4l77.7,46.1c6.4,3.8,10.7,10.4,11.9,17.8c-2.6-5.5-8.4-7-15.2-3l-73.5,45.4
		c-9.2,5.4-15.9,11.4-15.9,22.4v90.6c0,6.6,2.7,10.9,6.8,12.1c-1.3,0.2-2.7,0.4-4.1,0.4C-219.3,766.1-223.5,764.9-227.3,762.7
		 M-122.3,575.7l-77.7-46.1c-4.6-2.8-9.8-4.1-15-4.1c-5.2,0-10.4,1.4-15,4.1l-77.7,46.1c-9.3,5.5-15,15.7-15,26.7v92.2
		c0,11,5.7,21.2,15,26.7l77.7,46.1c4.6,2.8,9.8,4.1,15,4.1c5.2,0,10.3-1.4,15-4.1l77.7-46.1c9.3-5.5,15-15.7,15-26.7v-92.2
		C-107.3,591.4-113.1,581.2-122.3,575.7"/>
	<path id="Fill-6" class="st2" d="M-142.7,703.5l-19.3,11.6c-0.5,0.3-0.9,0.6-0.9,1.3v5.1c0,0.6,0.4,0.9,0.9,0.6l19.6-11.9
		c0.5-0.3,0.6-0.9,0.6-1.5v-4.5C-141.8,703.5-142.2,703.2-142.7,703.5"/>
	<path id="Fill-8" class="st0" d="M-183.9,660.9c0.6-0.3,1.1,0.1,1.2,0.9l0.1,6.7c2.8-1.1,5.2-1.4,7.4-0.9c0.5,0.1,0.7,0.8,0.5,1.6
		l-1.5,5.9c-0.1,0.4-0.4,0.9-0.7,1.2c-0.1,0.1-0.3,0.2-0.4,0.3c-0.2,0.1-0.4,0.1-0.6,0.1c-1-0.2-3.4-0.8-7.2,1.2
		c-3.9,2-5.3,5.4-5.3,8c0,3,1.6,4,7,4.1c7.2,0.1,10.3,3.3,10.4,10.5c0.1,7.1-3.7,14.7-9.5,19.4l0.1,6.6c0,0.8-0.5,1.7-1.1,2
		l-3.9,2.3c-0.6,0.3-1.1-0.1-1.2-0.9l-0.1-6.5c-3.4,1.4-6.8,1.7-8.9,0.9c-0.4-0.2-0.6-0.8-0.4-1.5l1.4-6c0.1-0.5,0.4-0.9,0.7-1.2
		c0.1-0.1,0.2-0.2,0.4-0.3c0.2-0.1,0.4-0.1,0.6-0.1c2.3,0.8,5.3,0.4,8.2-1c3.7-1.9,6.1-5.6,6.1-9.3c0-3.4-1.9-4.8-6.3-4.8
		c-5.6,0-10.9-1.1-11-9.4c-0.1-6.8,3.5-14,9.1-18.5l-0.1-6.7c0-0.8,0.5-1.7,1.1-2.1L-183.9,660.9z"/>
</g>
<g>
	<path class="st3" d="M-88.6,508.8c7.9,0,14.3,6.4,14.3,14.3v250.9c0,7.9-6.4,14.3-14.3,14.3h-250.9c-7.9,0-14.3-6.4-14.3-14.3
		V523.1c0-7.9,6.4-14.3,14.3-14.3H-88.6 M-88.6,506.8h-250.9c-9,0-16.3,7.3-16.3,16.3v250.9c0,9,7.3,16.3,16.3,16.3h250.9
		c9,0,16.3-7.3,16.3-16.3V523.1C-72.3,514.1-79.6,506.8-88.6,506.8L-88.6,506.8z"/>
</g>
</svg>
