<?xml version="1.0" encoding="utf-8"?>
<!-- Generator: Adobe Illustrator 19.0.0, SVG Export Plug-In . SVG Version: 6.00 Build 0)  -->
<svg version="1.1" id="Capa_1" xmlns="http://www.w3.org/2000/svg" xmlns:xlink="http://www.w3.org/1999/xlink" x="0px" y="0px"
	 viewBox="-289 507.5 283.5 283.5" style="enable-background:new -289 507.5 283.5 283.5;" xml:space="preserve">
<style type="text/css">
	.st0{fill:#808080;}
	.st1{fill:#9D9D9C;}
	.st2{fill:#BEBEBE;}
	.st3{fill:#EBEBEB;}
	.st4{fill:#FFFFFF;}
	.st5{fill:#646363;}
</style>
<title>HTML5 Logo</title>
<g>
	<g>
		<path class="st0" d="M-21.9,509.5c7.9,0,14.3,6.4,14.3,14.3v250.9c0,7.9-6.4,14.3-14.3,14.3h-250.8c-7.9,0-14.3-6.4-14.3-14.3
			V523.8c0-7.9,6.4-14.3,14.3-14.3H-21.9 M-21.9,507.5h-250.8c-9,0-16.3,7.3-16.3,16.3v250.9c0,9,7.3,16.3,16.3,16.3h250.9
			c9,0,16.3-7.3,16.3-16.3V523.8C-5.6,514.8-12.9,507.5-21.9,507.5L-21.9,507.5z"/>
	</g>
	<g>
		<path class="st1" d="M-238.8,750.8l-20.4-228.5h223.8l-20.4,228.4l-91.7,25.4"/>
		<path class="st2" d="M-147.3,756.7V541.1h91.5L-73.3,736"/>
		<path class="st3" d="M-217.6,578.9h70.3v28h-39.6l2.6,28.7h37v27.9H-210 M-208.7,677.6h28.1l2,22.4l31.3,8.4v29.2l-57.5-16"/>
		<path class="st4" d="M-77.2,578.9h-70.2v28h67.6 M-82.3,635.6h-65.1v28h34.5l-3.3,36.4l-31.3,8.4v29.1l57.4-15.9"/>
		<path class="st5" d="M-238.3,530.7h14.1v14.1h13.1v-14.1h14.2v42.6h-14.2v-14.2h-13v14.2h-14.2 M-178.1,544.9h-12.6v-14.2h39.3
			v14.2H-164v28.4h-14.1 M-145.1,530.7h14.8l9.1,15l9.1-15h14.9v42.6h-14.1v-21.1l-9.9,15.3l-10-15.3v21.1h-13.9 M-90.1,530.7h14.2
			v28.5h20.1v14.1h-34.3"/>
	</g>
</g>
</svg>
