<?xml version="1.0" encoding="utf-8"?>
<!-- Generator: Adobe Illustrator 19.0.0, SVG Export Plug-In . SVG Version: 6.00 Build 0)  -->
<svg version="1.1" id="Capa_1" xmlns="http://www.w3.org/2000/svg" xmlns:xlink="http://www.w3.org/1999/xlink" x="0px" y="0px"
	 viewBox="57.3 507.3 283.5 283.5" style="enable-background:new 57.3 507.3 283.5 283.5;" xml:space="preserve">
<style type="text/css">
	.st0{fill:#9D9D9C;}
	.st1{fill:#808080;}
</style>
<path class="st0" d="M248.3,729.7c5.8,9.4,13.3,16.4,26.6,16.4c11.2,0,18.3-5.6,18.3-13.3c0-9.2-7.3-12.5-19.6-17.9l-6.7-2.9
	c-19.5-8.3-32.4-18.7-32.4-40.6c0-20.2,15.4-35.6,39.5-35.6c17.1,0,29.5,6,38.3,21.6l-21,13.5c-4.6-8.3-9.6-11.6-17.4-11.6
	c-7.9,0-12.9,5-12.9,11.6c0,8.1,5,11.4,16.6,16.4l6.7,2.9c22.9,9.8,35.8,19.8,35.8,42.4c0,24.3-19.1,37.6-44.7,37.6
	c-25,0-41.2-11.9-49.1-27.6L248.3,729.7z M153,732c4.2,7.5,8.1,13.9,17.4,13.9c8.9,0,14.4-3.5,14.4-16.9v-91.7h27v92
	c0,27.9-16.4,40.6-40.3,40.6c-21.6,0-34.1-11.2-40.4-24.6L153,732z"/>
<g>
	<path class="st1" d="M324.4,509.3c7.9,0,14.3,6.4,14.3,14.3v250.9c0,7.9-6.4,14.3-14.3,14.3H73.6c-7.9,0-14.3-6.4-14.3-14.3V523.6
		c0-7.9,6.4-14.3,14.3-14.3H324.4 M324.4,507.3H73.6c-9,0-16.3,7.3-16.3,16.3v250.9c0,9,7.3,16.3,16.3,16.3h250.9
		c9,0,16.3-7.3,16.3-16.3V523.6C340.7,514.6,333.4,507.3,324.4,507.3L324.4,507.3z"/>
</g>
</svg>
