<?xml version="1.0" encoding="utf-8"?>
<!-- Generator: Adobe Illustrator 19.0.0, SVG Export Plug-In . SVG Version: 6.00 Build 0)  -->
<svg version="1.1"
	 id="svg3430" xmlns:dc="http://purl.org/dc/elements/1.1/" xmlns:cc="http://creativecommons.org/ns#" xmlns:svg="http://www.w3.org/2000/svg" xmlns:rdf="http://www.w3.org/1999/02/22-rdf-syntax-ns#"
	 xmlns="http://www.w3.org/2000/svg" xmlns:xlink="http://www.w3.org/1999/xlink" x="0px" y="0px"
	 viewBox="138.9 507.5 283.5 283.5" style="enable-background:new 138.9 507.5 283.5 283.5;" xml:space="preserve">
<style type="text/css">
	.st0{fill:#808080;}
	.st1{fill:#9D9D9C;}
</style>
<g id="g3478">
	<g>
		<path class="st0" d="M406,509.5c7.9,0,14.3,6.4,14.3,14.3v250.9c0,7.9-6.4,14.3-14.3,14.3H155.2c-7.9,0-14.3-6.4-14.3-14.3V523.8
			c0-7.9,6.4-14.3,14.3-14.3H406 M406,507.5H155.2c-9,0-16.3,7.3-16.3,16.3v250.9c0,9,7.3,16.3,16.3,16.3H406
			c9,0,16.3-7.3,16.3-16.3V523.8C422.3,514.8,415,507.5,406,507.5L406,507.5z"/>
	</g>
	<g id="g3484" transform="translate(161.7344,145.3066)">
		<path id="path3486" class="st1" d="M26.3,524.4c8.6,0,15-1.6,19-4.7c4-3.1,6.8-8.4,8.2-15.9c1.4-7,0.8-11.8-1.5-14.5
			c-2.4-2.7-7.7-4-15.6-4H22.7l-7.6,39.1H26.3z M-18.6,572.6c-0.6,0-1.2-0.3-1.6-0.8c-0.4-0.5-0.6-1.1-0.4-1.8l20.2-103.7
			c0.2-1,1.1-1.7,2.1-1.7H45c13.7,0,23.8,3.7,30.2,11c6.4,7.4,8.4,17.6,5.9,30.5c-1,5.3-2.8,10.1-5.2,14.5c-2.4,4.4-5.7,8.4-9.6,12
			c-4.7,4.4-10,7.6-15.8,9.5c-5.7,1.9-13,2.8-21.7,2.8H11.1l-5,25.8c-0.2,1-1.1,1.7-2.1,1.7H-18.6z"/>
	</g>
	<g id="g3492" transform="translate(311.583,116.3066)">
		<path id="path3494" class="st1" d="M-17,574c-0.6,0-1.2-0.3-1.6-0.8c-0.4-0.5-0.6-1.1-0.4-1.8l8.9-45.9c0.8-4.4,0.6-7.5-0.6-8.8
			c-0.8-0.8-3-2.2-9.7-2.2h-16.2l-11.2,57.7c-0.2,1-1.1,1.7-2.1,1.7h-22.4c-0.6,0-1.2-0.3-1.6-0.8c-0.4-0.5-0.6-1.1-0.4-1.8
			l20.2-103.7c0.2-1,1.1-1.7,2.1-1.7h22.4c0.6,0,1.2,0.3,1.6,0.8c0.4,0.5,0.6,1.1,0.4,1.8l-4.9,25h17.4c13.2,0,22.2,2.3,27.4,7.1
			c5.3,4.9,7,12.7,4.9,23.3l-9.4,48.3c-0.2,1-1.1,1.7-2.1,1.7H-17z"/>
	</g>
	<g id="g3500" transform="translate(409.5498,145.3066)">
		<path id="path3502" class="st1" d="M-45.2,524.4c8.6,0,15-1.6,19-4.7c4-3.1,6.8-8.4,8.2-15.9c1.4-7,0.8-11.8-1.5-14.5
			c-2.4-2.7-7.7-4-15.6-4h-13.7l-7.6,39.1H-45.2z M-90.1,572.6c-0.6,0-1.2-0.3-1.6-0.8c-0.4-0.5-0.6-1.1-0.4-1.8L-72,466.4
			c0.2-1,1.1-1.7,2.1-1.7h43.4c13.7,0,23.8,3.7,30.2,11c6.4,7.3,8.4,17.6,5.9,30.5c-1,5.3-2.8,10.1-5.2,14.5
			c-2.4,4.4-5.7,8.4-9.6,12c-4.7,4.4-10,7.6-15.8,9.5c-5.7,1.9-13,2.8-21.7,2.8h-17.6l-5,25.8c-0.2,1-1.1,1.7-2.1,1.7H-90.1z"/>
	</g>
</g>
</svg>
