<?xml version="1.0" encoding="utf-8"?>
<!-- Generator: Adobe Illustrator 19.0.0, SVG Export Plug-In . SVG Version: 6.00 Build 0)  -->
<svg version="1.1" id="Calque_1" xmlns="http://www.w3.org/2000/svg" xmlns:xlink="http://www.w3.org/1999/xlink" x="0px" y="0px"
	 viewBox="-60.7 507.3 283.5 283.5" style="enable-background:new -60.7 507.3 283.5 283.5;" xml:space="preserve">
<style type="text/css">
	.st0{fill:#9D9D9C;}
	.st1{fill:#808080;}
</style>
<g id="iphone">
</g>
<path class="st0" d="M198.9,565.3H-36.9v0c-3.7,0-6.7,3-6.7,6.7v154c0,3.7,3,6.7,6.7,6.7h235.7c3.7,0,6.7-3,6.7-6.7V572
	C205.6,568.3,202.6,565.3,198.9,565.3z M36.9,686.9l37.3,12.8l-41.5,15.1L2.5,631.8l50.7-18.4l-21.5,62.8
	C30.1,680.5,32.5,685.4,36.9,686.9z M59.9,682.6c0.4-1.2,1.8-1.9,3-1.5l8.5,2.9c1.2,0.4,1.9,1.8,1.5,3c-0.4,1.2-1.8,1.9-3,1.5
	l-8.5-2.9C60.1,685.2,59.4,683.8,59.9,682.6z M46.1,666.4l25.3-74l47.4,16.2l-25.3,74L46.1,666.4z M129.6,609.9
	c1.5-4.4-0.9-9.2-5.2-10.7l-16.8-5.7l21.8-7.9l30.2,82.9l-57.1,20.8L129.6,609.9z M-31.9,576.9h151.5l-29.4,10.7l-17.4-6
	c-4.4-1.5-9.2,0.9-10.7,5.2l-4.3,12.5l-58.8,21.4c-6.6,2.4-10,9.7-7.6,16.4l29.3,80.5c0.5,1.3,1.1,2.4,1.9,3.4h-54.5V576.9z
	 M193.9,721.1H48.6l114.3-41.6c6.6-2.4,10-9.7,7.6-16.4l-29.3-80.5c-0.9-2.4-2.3-4.3-4.2-5.7h56.8L193.9,721.1L193.9,721.1z"/>
<g>
	<path class="st1" d="M206.4,509.3c7.9,0,14.3,6.4,14.3,14.3v250.9c0,7.9-6.4,14.3-14.3,14.3H-44.4c-7.9,0-14.3-6.4-14.3-14.3V523.6
		c0-7.9,6.4-14.3,14.3-14.3H206.4 M206.4,507.3H-44.4c-9,0-16.3,7.3-16.3,16.3v250.9c0,9,7.3,16.3,16.3,16.3h250.9
		c9,0,16.3-7.3,16.3-16.3V523.6C222.7,514.6,215.4,507.3,206.4,507.3L206.4,507.3z"/>
</g>
</svg>
